<?xml version="1.0" encoding="UTF-8" standalone="no"?>
<!DOCTYPE svg PUBLIC "-//W3C//DTD SVG 1.1//EN" "http://www.w3.org/Graphics/SVG/1.1/DTD/svg11.dtd">
<svg width="100%" height="100%" viewBox="0 0 3756 2365" version="1.1" xmlns="http://www.w3.org/2000/svg" xmlns:xlink="http://www.w3.org/1999/xlink" xml:space="preserve" xmlns:serif="http://www.serif.com/" style="fill-rule:evenodd;clip-rule:evenodd;stroke-linejoin:round;stroke-miterlimit:2;">
    <g id="Artboard1" transform="matrix(0.573588,0,0,0.967581,965.858,-450.971)">
        <rect x="-1683.89" y="466.081" width="6546.77" height="2443.25" style="fill:none;"/>
        <g transform="matrix(1.74341,0,0,1.0335,-3289.63,-97.4765)">
            <g opacity="0.45">
                <g id="Layer_1-2" transform="matrix(6.25531,0,0,6.25531,1179.08,1869.01)">
                    <path d="M3.19,10.16L3.02,6.6L0,4.71L3.34,3.46L4.19,0L6.42,2.79L9.97,2.53L8.01,5.51L9.35,8.81L5.91,7.86L3.19,10.16Z" style="fill:rgb(226,17,100);fill-opacity:0.75;fill-rule:nonzero;"/>
                </g>
                <g id="Layer_1-21" serif:id="Layer_1-2" transform="matrix(7.08827,0,0,7.08827,4525.2,882.61)">
                    <path d="M3.19,10.16L3.02,6.6L0,4.71L3.34,3.46L4.19,0L6.42,2.79L9.97,2.53L8.01,5.51L9.35,8.81L5.91,7.86L3.19,10.16Z" style="fill:rgb(226,17,100);fill-opacity:0.75;fill-rule:nonzero;"/>
                </g>
                <g id="Layer_1-22" serif:id="Layer_1-2" transform="matrix(6.25531,0,0,6.25531,1630.33,717.785)">
                    <path d="M3.19,10.16L3.02,6.6L0,4.71L3.34,3.46L4.19,0L6.42,2.79L9.97,2.53L8.01,5.51L9.35,8.81L5.91,7.86L3.19,10.16Z" style="fill:rgb(226,17,100);fill-opacity:0.75;fill-rule:nonzero;"/>
                </g>
                <g id="Layer_1-23" serif:id="Layer_1-2" transform="matrix(6.70795,0,0,7.49345,1625.81,1792.78)">
                    <path d="M3.19,10.16L3.02,6.6L0,4.71L3.34,3.46L4.19,0L6.42,2.79L9.97,2.53L8.01,5.51L9.35,8.81L5.91,7.86L3.19,10.16Z" style="fill:rgb(226,17,100);fill-opacity:0.75;fill-rule:nonzero;"/>
                </g>
            </g>
        </g>
        <g transform="matrix(1.74341,0,0,1.0335,-3289.63,-97.4765)">
            <g opacity="0.5">
                <g id="Layer_1-24" serif:id="Layer_1-2" transform="matrix(4.16095,0,0,4.16095,1858.59,2512.27)">
                    <path d="M3.19,10.16L3.02,6.6L0,4.71L3.34,3.46L4.19,0L6.42,2.79L9.97,2.53L8.01,5.51L9.35,8.81L5.91,7.86L3.19,10.16Z" style="fill:rgb(226,17,100);fill-opacity:0.75;fill-rule:nonzero;"/>
                </g>
                <g id="Layer_1-25" serif:id="Layer_1-2" transform="matrix(3.73098,-6.15727,6.15727,3.73098,3180.24,870.845)">
                    <path d="M3.19,10.16L3.02,6.6L0,4.71L3.34,3.46L4.19,0L6.42,2.79L9.97,2.53L8.01,5.51L9.35,8.81L5.91,7.86L3.19,10.16Z" style="fill:rgb(226,17,100);fill-opacity:0.75;fill-rule:nonzero;"/>
                </g>
                <g id="Layer_1-26" serif:id="Layer_1-2" transform="matrix(3.73098,-6.15727,6.15727,3.73098,3861.31,1811.32)">
                    <path d="M3.19,10.16L3.02,6.6L0,4.71L3.34,3.46L4.19,0L6.42,2.79L9.97,2.53L8.01,5.51L9.35,8.81L5.91,7.86L3.19,10.16Z" style="fill:rgb(226,17,100);fill-opacity:0.75;fill-rule:nonzero;"/>
                </g>
                <g id="Layer_1-27" serif:id="Layer_1-2" transform="matrix(3.35177,-5.53146,5.53146,3.35177,3833.34,1177)">
                    <path d="M3.19,10.16L3.02,6.6L0,4.71L3.34,3.46L4.19,0L6.42,2.79L9.97,2.53L8.01,5.51L9.35,8.81L5.91,7.86L3.19,10.16Z" style="fill:rgb(226,17,100);fill-opacity:0.75;fill-rule:nonzero;"/>
                </g>
                <g id="Layer_1-28" serif:id="Layer_1-2" transform="matrix(2.48179,-4.09573,4.09573,2.48179,4203.47,1052.69)">
                    <path d="M3.19,10.16L3.02,6.6L0,4.71L3.34,3.46L4.19,0L6.42,2.79L9.97,2.53L8.01,5.51L9.35,8.81L5.91,7.86L3.19,10.16Z" style="fill:rgb(226,17,100);fill-opacity:0.75;fill-rule:nonzero;"/>
                </g>
                <g id="Layer_1-29" serif:id="Layer_1-2" transform="matrix(2.48179,-4.09573,4.09573,2.48179,3051.62,2010.8)">
                    <path d="M3.19,10.16L3.02,6.6L0,4.71L3.34,3.46L4.19,0L6.42,2.79L9.97,2.53L8.01,5.51L9.35,8.81L5.91,7.86L3.19,10.16Z" style="fill:rgb(226,17,100);fill-opacity:0.75;fill-rule:nonzero;"/>
                </g>
            </g>
        </g>
        <g transform="matrix(1.74341,0,0,1.0335,-3289.63,-97.4765)">
            <g opacity="0.6">
                <g id="Layer_1-210" serif:id="Layer_1-2" transform="matrix(2.48179,-4.09573,4.09573,2.48179,4538.7,2688.01)">
                    <path d="M3.19,10.16L3.02,6.6L0,4.71L3.34,3.46L4.19,0L6.42,2.79L9.97,2.53L8.01,5.51L9.35,8.81L5.91,7.86L3.19,10.16Z" style="fill:rgb(226,17,100);fill-opacity:0.75;fill-rule:nonzero;"/>
                </g>
                <g id="Layer_1-211" serif:id="Layer_1-2" transform="matrix(3.87385,0.659647,-0.656333,3.85439,2837.01,1040.44)">
                    <path d="M3.19,10.16L3.02,6.6L0,4.71L3.34,3.46L4.19,0L6.42,2.79L9.97,2.53L8.01,5.51L9.35,8.81L5.91,7.86L3.19,10.16Z" style="fill:rgb(226,17,100);fill-opacity:0.75;fill-rule:nonzero;"/>
                </g>
                <g id="Layer_1-212" serif:id="Layer_1-2" transform="matrix(4.90247,0.834804,-0.83061,4.87784,4051.75,1557.41)">
                    <path d="M3.19,10.16L3.02,6.6L0,4.71L3.34,3.46L4.19,0L6.42,2.79L9.97,2.53L8.01,5.51L9.35,8.81L5.91,7.86L3.19,10.16Z" style="fill:rgb(226,17,100);fill-opacity:0.75;fill-rule:nonzero;"/>
                </g>
                <g id="Layer_1-213" serif:id="Layer_1-2" transform="matrix(4.44477,-5.11215,5.14392,4.43223,1956.3,2201.57)">
                    <path d="M3.19,10.16L3.02,6.6L0,4.71L3.34,3.46L4.19,0L6.42,2.79L9.97,2.53L8.01,5.51L9.35,8.81L5.91,7.86L3.19,10.16Z" style="fill:rgb(226,17,100);fill-opacity:0.75;fill-rule:nonzero;"/>
                </g>
                <g id="Layer_1-214" serif:id="Layer_1-2" transform="matrix(6.86881,-7.90016,7.94925,6.84942,2164.84,1855.78)">
                    <path d="M3.19,10.16L3.02,6.6L0,4.71L3.34,3.46L4.19,0L6.42,2.79L9.97,2.53L8.01,5.51L9.35,8.81L5.91,7.86L3.19,10.16Z" style="fill:rgb(226,17,100);fill-opacity:0.75;fill-rule:nonzero;"/>
                </g>
                <g id="Layer_1-215" serif:id="Layer_1-2" transform="matrix(2.9566,-3.40053,3.42166,2.94825,1014.96,997.167)">
                    <path d="M3.19,10.16L3.02,6.6L0,4.71L3.34,3.46L4.19,0L6.42,2.79L9.97,2.53L8.01,5.51L9.35,8.81L5.91,7.86L3.19,10.16Z" style="fill:rgb(226,17,100);fill-opacity:0.75;fill-rule:nonzero;"/>
                </g>
                <g id="Layer_1-216" serif:id="Layer_1-2" transform="matrix(-4.24532,6.75143,-6.05634,-4.61123,3273.18,1491.96)">
                    <path d="M3.19,10.16L3.02,6.6L0,4.71L3.34,3.46L4.19,0L6.42,2.79L9.97,2.53L8.01,5.51L9.35,8.81L5.91,7.86L3.19,10.16Z" style="fill:rgb(226,17,100);fill-opacity:0.75;fill-rule:nonzero;"/>
                </g>
                <g id="Layer_1-217" serif:id="Layer_1-2" transform="matrix(-4.24532,6.75143,-6.05634,-4.61123,2549.46,1051.8)">
                    <path d="M3.19,10.16L3.02,6.6L0,4.71L3.34,3.46L4.19,0L6.42,2.79L9.97,2.53L8.01,5.51L9.35,8.81L5.91,7.86L3.19,10.16Z" style="fill:rgb(226,17,100);fill-opacity:0.75;fill-rule:nonzero;"/>
                </g>
            </g>
        </g>
        <g transform="matrix(1.74341,0,0,1.0335,-3289.63,-97.4765)">
            <g opacity="0.74">
                <g id="Layer_1-218" serif:id="Layer_1-2" transform="matrix(-4.24532,6.75143,-6.05634,-4.61123,1051.23,2668.53)">
                    <path d="M3.19,10.16L3.02,6.6L0,4.71L3.34,3.46L4.19,0L6.42,2.79L9.97,2.53L8.01,5.51L9.35,8.81L5.91,7.86L3.19,10.16Z" style="fill:rgb(226,17,100);fill-opacity:0.75;fill-rule:nonzero;"/>
                </g>
                <g id="Layer_1-219" serif:id="Layer_1-2" transform="matrix(-2.82392,4.49095,-4.02859,-3.06732,4277.21,671.002)">
                    <path d="M3.19,10.16L3.02,6.6L0,4.71L3.34,3.46L4.19,0L6.42,2.79L9.97,2.53L8.01,5.51L9.35,8.81L5.91,7.86L3.19,10.16Z" style="fill:rgb(226,17,100);fill-opacity:0.75;fill-rule:nonzero;"/>
                </g>
                <g id="Layer_1-220" serif:id="Layer_1-2" transform="matrix(-2.82392,4.49095,-4.02859,-3.06732,3270.8,2348.91)">
                    <path d="M3.19,10.16L3.02,6.6L0,4.71L3.34,3.46L4.19,0L6.42,2.79L9.97,2.53L8.01,5.51L9.35,8.81L5.91,7.86L3.19,10.16Z" style="fill:rgb(226,17,100);fill-opacity:0.75;fill-rule:nonzero;"/>
                </g>
                <g id="Layer_1-221" serif:id="Layer_1-2" transform="matrix(-3.92573,-0.987401,0.936268,-4.3301,2848.3,2236.85)">
                    <path d="M3.19,10.16L3.02,6.6L0,4.71L3.34,3.46L4.19,0L6.42,2.79L9.97,2.53L8.01,5.51L9.35,8.81L5.91,7.86L3.19,10.16Z" style="fill:rgb(226,17,100);fill-opacity:0.75;fill-rule:nonzero;"/>
                </g>
                <g id="Layer_1-222" serif:id="Layer_1-2" transform="matrix(-3.92573,-0.987401,0.936268,-4.3301,3701.44,1621.01)">
                    <path d="M3.19,10.16L3.02,6.6L0,4.71L3.34,3.46L4.19,0L6.42,2.79L9.97,2.53L8.01,5.51L9.35,8.81L5.91,7.86L3.19,10.16Z" style="fill:rgb(226,17,100);fill-opacity:0.75;fill-rule:nonzero;"/>
                </g>
                <g id="Layer_1-223" serif:id="Layer_1-2" transform="matrix(-4.90553,5.52221,-4.96968,-5.34378,2900.59,2623.35)">
                    <path d="M3.19,10.16L3.02,6.6L0,4.71L3.34,3.46L4.19,0L6.42,2.79L9.97,2.53L8.01,5.51L9.35,8.81L5.91,7.86L3.19,10.16Z" style="fill:rgb(226,17,100);fill-opacity:0.75;fill-rule:nonzero;"/>
                </g>
            </g>
        </g>
        <g transform="matrix(1.74341,0,0,1.0335,-3289.63,-97.4765)">
            <g opacity="0.88">
                <g id="Layer_1-224" serif:id="Layer_1-2" transform="matrix(2.9566,-3.40053,3.42166,2.94825,3364.4,2777.74)">
                    <path d="M3.19,10.16L3.02,6.6L0,4.71L3.34,3.46L4.19,0L6.42,2.79L9.97,2.53L8.01,5.51L9.35,8.81L5.91,7.86L3.19,10.16Z" style="fill:rgb(226,17,100);fill-opacity:0.75;fill-rule:nonzero;"/>
                </g>
                <g id="Layer_1-225" serif:id="Layer_1-2" transform="matrix(3.87385,0.659647,-0.656333,3.85439,4301.56,1243.55)">
                    <path d="M3.19,10.16L3.02,6.6L0,4.71L3.34,3.46L4.19,0L6.42,2.79L9.97,2.53L8.01,5.51L9.35,8.81L5.91,7.86L3.19,10.16Z" style="fill:rgb(226,17,100);fill-opacity:0.75;fill-rule:nonzero;"/>
                </g>
                <g id="Layer_1-226" serif:id="Layer_1-2" transform="matrix(-6.17287,6.94887,-6.2536,-6.72435,3715.48,2419.41)">
                    <path d="M3.19,10.16L3.02,6.6L0,4.71L3.34,3.46L4.19,0L6.42,2.79L9.97,2.53L8.01,5.51L9.35,8.81L5.91,7.86L3.19,10.16Z" style="fill:rgb(226,17,100);fill-opacity:0.75;fill-rule:nonzero;"/>
                </g>
                <g id="Layer_1-227" serif:id="Layer_1-2" transform="matrix(-6.17287,6.94887,-6.2536,-6.72435,4591.23,1207.49)">
                    <path d="M3.19,10.16L3.02,6.6L0,4.71L3.34,3.46L4.19,0L6.42,2.79L9.97,2.53L8.01,5.51L9.35,8.81L5.91,7.86L3.19,10.16Z" style="fill:rgb(226,17,100);fill-opacity:0.75;fill-rule:nonzero;"/>
                </g>
                <g id="Layer_1-228" serif:id="Layer_1-2" transform="matrix(-6.17287,6.94887,-6.2536,-6.72435,2739.65,658.53)">
                    <path d="M3.19,10.16L3.02,6.6L0,4.71L3.34,3.46L4.19,0L6.42,2.79L9.97,2.53L8.01,5.51L9.35,8.81L5.91,7.86L3.19,10.16Z" style="fill:rgb(226,17,100);fill-opacity:0.75;fill-rule:nonzero;"/>
                </g>
            </g>
        </g>
        <g transform="matrix(1.74341,0,0,1.0335,-3289.63,-97.4765)">
            <g id="Layer_1-229" serif:id="Layer_1-2" transform="matrix(-4.10611,4.62229,-4.1598,-4.47294,1775.7,1271.22)">
                <path d="M3.19,10.16L3.02,6.6L0,4.71L3.34,3.46L4.19,0L6.42,2.79L9.97,2.53L8.01,5.51L9.35,8.81L5.91,7.86L3.19,10.16Z" style="fill:rgb(226,17,100);fill-opacity:0.75;fill-rule:nonzero;"/>
            </g>
            <g id="Layer_1-230" serif:id="Layer_1-2" transform="matrix(3.72044,-4.27906,4.30565,3.70994,4369.68,1900.92)">
                <path d="M3.19,10.16L3.02,6.6L0,4.71L3.34,3.46L4.19,0L6.42,2.79L9.97,2.53L8.01,5.51L9.35,8.81L5.91,7.86L3.19,10.16Z" style="fill:rgb(226,17,100);fill-opacity:0.75;fill-rule:nonzero;"/>
            </g>
            <g id="Layer_1-231" serif:id="Layer_1-2" transform="matrix(3.72044,-4.27906,4.30565,3.70994,1250.48,1439.6)">
                <path d="M3.19,10.16L3.02,6.6L0,4.71L3.34,3.46L4.19,0L6.42,2.79L9.97,2.53L8.01,5.51L9.35,8.81L5.91,7.86L3.19,10.16Z" style="fill:rgb(226,17,100);fill-opacity:0.75;fill-rule:nonzero;"/>
            </g>
            <g id="Layer_1-232" serif:id="Layer_1-2" transform="matrix(4.44477,-5.11215,5.14392,4.43223,2597.55,1555.34)">
                <path d="M3.19,10.16L3.02,6.6L0,4.71L3.34,3.46L4.19,0L6.42,2.79L9.97,2.53L8.01,5.51L9.35,8.81L5.91,7.86L3.19,10.16Z" style="fill:rgb(226,17,100);fill-opacity:0.75;fill-rule:nonzero;"/>
            </g>
            <g transform="matrix(-0.999535,-0.0305027,0.0305024,-0.999535,4324.35,3772.36)">
                <g opacity="0.6">
                    <g id="Layer_1-233" serif:id="Layer_1-2" transform="matrix(3.87385,0.659647,-0.656333,3.85439,2837.01,1040.44)">
                        <path d="M3.19,10.16L3.02,6.6L0,4.71L3.34,3.46L4.19,0L6.42,2.79L9.97,2.53L8.01,5.51L9.35,8.81L5.91,7.86L3.19,10.16Z" style="fill:rgb(226,17,100);fill-opacity:0.75;fill-rule:nonzero;"/>
                    </g>
                    <g id="Layer_1-234" serif:id="Layer_1-2" transform="matrix(4.44477,-5.11215,5.14392,4.43223,1956.3,2201.57)">
                        <path d="M3.19,10.16L3.02,6.6L0,4.71L3.34,3.46L4.19,0L6.42,2.79L9.97,2.53L8.01,5.51L9.35,8.81L5.91,7.86L3.19,10.16Z" style="fill:rgb(226,17,100);fill-opacity:0.75;fill-rule:nonzero;"/>
                    </g>
                    <g id="Layer_1-235" serif:id="Layer_1-2" transform="matrix(6.86881,-7.90016,7.94925,6.84942,1926.13,1082.08)">
                        <path d="M3.19,10.16L3.02,6.6L0,4.71L3.34,3.46L4.19,0L6.42,2.79L9.97,2.53L8.01,5.51L9.35,8.81L5.91,7.86L3.19,10.16Z" style="fill:rgb(226,17,100);fill-opacity:0.75;fill-rule:nonzero;"/>
                    </g>
                    <g id="Layer_1-236" serif:id="Layer_1-2" transform="matrix(2.9566,-3.40053,3.42166,2.94825,1014.96,997.167)">
                        <path d="M3.19,10.16L3.02,6.6L0,4.71L3.34,3.46L4.19,0L6.42,2.79L9.97,2.53L8.01,5.51L9.35,8.81L5.91,7.86L3.19,10.16Z" style="fill:rgb(226,17,100);fill-opacity:0.75;fill-rule:nonzero;"/>
                    </g>
                </g>
            </g>
            <g id="Layer_1-237" serif:id="Layer_1-2" transform="matrix(-4.59863,4.97419,-5.00633,-4.58707,1375.22,2267.51)">
                <path d="M3.19,10.16L3.02,6.6L0,4.71L3.34,3.46L4.19,0L6.42,2.79L9.97,2.53L8.01,5.51L9.35,8.81L5.91,7.86L3.19,10.16Z" style="fill:rgb(226,17,100);fill-opacity:0.75;fill-rule:nonzero;"/>
            </g>
            <g id="Layer_1-238" serif:id="Layer_1-2" transform="matrix(4.87466,0.830067,-0.825897,4.85017,3972.52,786.689)">
                <path d="M3.19,10.16L3.02,6.6L0,4.71L3.34,3.46L4.19,0L6.42,2.79L9.97,2.53L8.01,5.51L9.35,8.81L5.91,7.86L3.19,10.16Z" style="fill:rgb(226,17,100);fill-opacity:0.75;fill-rule:nonzero;"/>
            </g>
        </g>
        <g id="Layer_1-239" serif:id="Layer_1-2" transform="matrix(6.75371,0.681749,-1.14426,3.98353,3326.07,2679.98)">
            <path d="M3.19,10.16L3.02,6.6L0,4.71L3.34,3.46L4.19,0L6.42,2.79L9.97,2.53L8.01,5.51L9.35,8.81L5.91,7.86L3.19,10.16Z" style="fill:rgb(226,17,100);fill-opacity:0.75;fill-rule:nonzero;"/>
        </g>
        <g id="Layer_1-240" serif:id="Layer_1-2" transform="matrix(13.957,1.40888,-2.36469,8.23223,2978.93,520.07)">
            <path d="M3.19,10.16L3.02,6.6L0,4.71L3.34,3.46L4.19,0L6.42,2.79L9.97,2.53L8.01,5.51L9.35,8.81L5.91,7.86L3.19,10.16Z" style="fill:rgb(226,17,100);fill-opacity:0.75;fill-rule:nonzero;"/>
        </g>
        <g id="Layer_3" transform="matrix(13.6749,0,0,8.10658,-1331.72,1010.18)">
            <ellipse cx="17.67" cy="18.09" rx="17.67" ry="18.09" style="fill:rgb(211,27,98);"/>
            <ellipse cx="23.03" cy="5.85" rx="1.6" ry="1.61" style="fill:rgb(255,62,139);"/>
            <ellipse cx="25.28" cy="10.5" rx="0.94" ry="0.95" style="fill:rgb(255,62,139);"/>
            <ellipse cx="29.86" cy="13.06" rx="1.6" ry="1.61" style="fill:rgb(255,62,139);"/>
            <ellipse cx="15.14" cy="9.52" rx="3.03" ry="3.05" style="fill:rgb(255,62,139);"/>
            <circle cx="7.57" cy="11.45" r="0.77" style="fill:rgb(255,62,139);"/>
            <ellipse cx="27.24" cy="24.13" rx="2.3" ry="2.32" style="fill:rgb(255,62,139);"/>
            <ellipse cx="23.45" cy="17.75" rx="1.31" ry="1.32" style="fill:rgb(255,62,139);"/>
            <ellipse cx="8.35" cy="20.62" rx="2.67" ry="2.69" style="fill:rgb(255,62,139);"/>
            <ellipse cx="15.14" cy="17.34" rx="1.6" ry="1.61" style="fill:rgb(255,62,139);"/>
            <ellipse cx="15.14" cy="26.45" rx="1.2" ry="1.21" style="fill:rgb(255,62,139);"/>
            <ellipse cx="21.43" cy="30.28" rx="1.6" ry="1.61" style="fill:rgb(255,62,139);"/>
        </g>
        <g id="Layer_12" transform="matrix(11.3177,0,0,6.70918,-431.687,600.311)">
            <circle cx="72.68" cy="34.02" r="34.02" style="fill:rgb(230,158,92);"/>
            <circle cx="72.68" cy="34.02" r="34.02" style="fill:rgb(184,22,84);"/>
            <path d="M104.22,21.28C98.77,21.63 93.74,22.22 97.22,21.23C99.291,20.703 101.328,20.052 103.32,19.28C103.24,19.12 103.16,18.95 103.07,18.78C99.68,18.61 84.19,20.45 68.67,19.62C65.57,19.464 63.074,19.574 60.988,19.831C54.769,20.599 52.191,22.686 48.11,23C44.39,23.28 41.92,23.49 40.28,23.66C39.517,26.045 39.017,28.506 38.79,31C38.79,31.43 38.73,31.86 38.71,32.28C40.909,32.352 43.075,32.83 45.1,33.69C50.46,35.77 85.1,31.55 106.04,27.32C105.624,25.254 105.014,23.232 104.22,21.28Z" style="fill:rgb(199,24,92);fill-rule:nonzero;"/>
            <path d="M41.73,48.12C42.01,48.76 42.32,49.38 42.65,49.99C44.56,49.89 46.01,49.99 46.08,50.45C46.47,53.15 79.29,46.77 70.08,49.39C45.97,56.22 72.96,50.15 103.71,48.07C105.295,44.594 106.279,40.875 106.62,37.07C106.68,36.34 106.72,35.61 106.73,34.89C85.73,38.31 61.18,43.15 46.81,46.89L41.73,48.12Z" style="fill:rgb(199,24,92);fill-rule:nonzero;"/>
            <path d="M71.75,32C31.94,33.57 -0.18,38.67 0,43.41C0.18,48.15 32.61,50.75 72.42,49.2C112.23,47.65 144.36,42.56 144.17,37.82C143.98,33.08 111.57,30.48 71.75,32ZM77.2,42.57C50.2,43.57 28.3,43.02 28.2,41.24C28.1,39.46 50,37.17 77,36.12C104,35.07 125.91,35.67 126,37.45C126.09,39.23 104.18,41.52 77.2,42.57Z" style="fill:rgb(184,22,84);fill-rule:nonzero;"/>
            <path d="M70.3,35.1C39.3,36.3 14.3,39.2 14.39,41.57C14.48,43.94 39.66,44.9 70.63,43.7C101.6,42.5 126.63,39.6 126.53,37.22C126.43,34.84 101.26,33.9 70.3,35.1ZM74.42,40.32C53.42,41.14 36.42,41.07 36.36,40.18C36.3,39.29 53.36,37.91 74.29,37.1C95.22,36.29 112.29,36.35 112.35,37.24C112.41,38.13 95.4,39.51 74.42,40.32Z" style="fill:rgb(199,24,92);fill-rule:nonzero;"/>
            <path d="M106.16,28C100.42,28 88.99,29.6 78.21,31.57C76.978,31.495 75.742,31.495 74.51,31.57C77.76,30.9 79.51,29.99 82.04,29.71C99.16,27.84 80.15,29.34 100.18,27.07C102.57,26.8 104.42,26.57 105.82,26.37C105.72,25.96 105.62,25.54 105.51,25.13C102.21,24.98 97.51,24.87 94.27,24.54C89.57,24.07 88.7,24.98 84.27,24C80.27,23.11 54.17,26.86 38.92,29.95C38.92,30.32 38.83,30.69 38.79,31.07C38.73,31.75 38.7,32.43 38.68,33.07C43.31,32.7 49.15,31.81 46.09,32.6C44.523,32.961 42.977,33.408 41.46,33.94L38.66,34.38C38.682,36.295 38.863,38.205 39.2,40.09C43.09,39.76 47.5,39.48 51.91,39.4C54.407,39.384 56.897,39.143 59.35,38.68C61.6,39.88 75.79,37.22 71.35,38.62C58.06,42.84 75.11,38.77 92.35,39.19C100.82,39.4 103.09,37.04 106.59,36.37C106.794,33.573 106.649,30.761 106.16,28Z" style="fill:rgb(226,17,100);fill-rule:nonzero;"/>
        </g>
        <g id="Layer_5" transform="matrix(8.38224,0,0,4.96904,3380.31,1965.74)">
            <ellipse cx="80.3" cy="76.16" rx="80.3" ry="76.16" style="fill:rgb(219,18,94);"/>
            <ellipse cx="80.3" cy="82.44" rx="72.44" ry="65.46" style="fill:rgb(186,0,72);"/>
            <ellipse cx="86.26" cy="72.56" rx="66.58" ry="61.41" style="fill:rgb(153,4,61);"/>
        </g>
        <g id="Layer_31" serif:id="Layer_3" transform="matrix(9.87968,0,0,5.54524,4138.1,1404.12)">
            <ellipse cx="17.67" cy="18.09" rx="17.67" ry="18.09" style="fill:rgb(226,17,100);"/>
            <ellipse cx="23.03" cy="5.85" rx="1.6" ry="1.61" style="fill:rgb(175,19,81);"/>
            <ellipse cx="25.28" cy="10.5" rx="0.94" ry="0.95" style="fill:rgb(175,19,81);"/>
            <ellipse cx="29.86" cy="13.06" rx="1.6" ry="1.61" style="fill:rgb(175,19,81);"/>
            <ellipse cx="15.14" cy="9.52" rx="3.03" ry="3.05" style="fill:rgb(175,19,81);"/>
            <circle cx="7.57" cy="11.45" r="0.77" style="fill:rgb(175,19,81);"/>
            <ellipse cx="27.24" cy="24.13" rx="2.3" ry="2.32" style="fill:rgb(175,19,81);"/>
            <ellipse cx="23.45" cy="17.75" rx="1.31" ry="1.32" style="fill:rgb(175,19,81);"/>
            <ellipse cx="8.35" cy="20.62" rx="2.67" ry="2.69" style="fill:rgb(175,19,81);"/>
            <ellipse cx="15.14" cy="17.34" rx="1.6" ry="1.61" style="fill:rgb(175,19,81);"/>
            <ellipse cx="15.14" cy="26.45" rx="1.2" ry="1.21" style="fill:rgb(175,19,81);"/>
            <ellipse cx="21.43" cy="30.28" rx="1.6" ry="1.61" style="fill:rgb(175,19,81);"/>
        </g>
        <g id="Layer_9" transform="matrix(6.63804,0,0,3.93507,2661.05,1896.99)">
            <ellipse cx="24.9" cy="24.99" rx="24.9" ry="24.99" style="fill:rgb(197,15,85);"/>
            <path d="M30.84,26.06C26.54,26.39 25.84,30.41 25.55,26.42C25.45,24.99 24.1,28.29 22.47,26.66C21.11,25.3 20.32,28.66 20.47,24.48C20.6,20.78 23.87,15.29 26.18,16.48C28.49,17.67 27.69,16.57 29.5,17.13C32.66,18.13 36.82,17.44 33.95,20.06C31.08,22.68 34.54,20.95 32.01,23.06C31.41,23.56 33.12,25.89 30.84,26.06Z" style="fill:rgb(236,33,112);fill-rule:nonzero;"/>
            <path d="M29.12,37.91C21.74,35.09 14.2,37.43 20.12,34.41C22.24,33.34 14.83,34.71 14.83,32.41C14.83,30.49 8.16,32.33 15.1,29.41C21.18,26.88 35.1,25.31 36.97,27.75C38.84,30.19 39.24,28.89 41.24,30.56C44.74,33.47 52.38,35.96 43.65,35.78C34.92,35.6 43.17,36.78 35.72,36.57C34,36.54 33,39.39 29.12,37.91Z" style="fill:rgb(236,33,112);fill-rule:nonzero;"/>
            <path d="M43.39,19.11C37.67,15.85 40.14,20.83 36.32,15.04C34.96,12.97 35.92,16.39 32.24,12.72C29.18,9.66 31,13.72 27.56,7.94C24.56,2.94 24.35,-1.93 28.56,1.66C32.77,5.25 30.76,3.09 33.74,5.42C39,9.49 44.2,12.17 42.47,13.35C40.74,14.53 44.06,15.1 42.4,15.92C42,16.11 46.4,20.82 43.39,19.11Z" style="fill:rgb(236,33,112);fill-rule:nonzero;"/>
            <path d="M14.05,29.72C10.17,33.94 12.5,38.91 9.25,34.85C8.09,33.4 9.25,38.17 6.48,37.85C4.16,37.61 5.94,41.98 2.91,37.31C0.26,33.24 -0.73,24.39 2.34,23.56C5.41,22.73 3.87,22.29 6,21.27C9.75,19.47 13.24,15.05 12.46,20.44C11.68,25.83 13.7,20.87 12.89,25.44C12.71,26.53 16.09,27.5 14.05,29.72Z" style="fill:rgb(236,33,112);fill-rule:nonzero;"/>
            <ellipse cx="13.49" cy="12.29" rx="1.22" ry="1.23" style="fill:rgb(226,17,100);"/>
            <ellipse cx="34.89" cy="40.9" rx="1.86" ry="1.92" style="fill:rgb(226,17,100);"/>
            <g transform="matrix(0.41231,-0.911044,0.911044,0.41231,-22.4,53.57)">
                <ellipse cx="30.32" cy="44.14" rx="1.22" ry="1.23" style="fill:rgb(226,17,100);"/>
            </g>
            <ellipse cx="20.44" cy="11.06" rx="3.35" ry="2.89" style="fill:rgb(226,17,100);"/>
            <ellipse cx="16.18" cy="16.28" rx="2.05" ry="2.42" style="fill:rgb(226,17,100);"/>
            <ellipse cx="40.7" cy="35.03" rx="1.22" ry="1.23" style="fill:rgb(140,21,67);"/>
            <ellipse cx="17.09" cy="5.47" rx="1.22" ry="1.23" style="fill:rgb(140,21,67);"/>
        </g>
        <g id="Layer_91" serif:id="Layer_9" transform="matrix(13.5798,0,0,8.0502,2483.73,921.585)">
            <ellipse cx="24.9" cy="24.99" rx="24.9" ry="24.99" style="fill:rgb(240,20,107);"/>
            <path d="M30.84,26.06C26.54,26.39 25.84,30.41 25.55,26.42C25.45,24.99 24.1,28.29 22.47,26.66C21.11,25.3 20.32,28.66 20.47,24.48C20.6,20.78 23.87,15.29 26.18,16.48C28.49,17.67 27.69,16.57 29.5,17.13C32.66,18.13 36.82,17.44 33.95,20.06C31.08,22.68 34.54,20.95 32.01,23.06C31.41,23.56 33.12,25.89 30.84,26.06Z" style="fill:rgb(208,21,96);fill-rule:nonzero;"/>
            <path d="M29.12,37.91C21.74,35.09 14.2,37.43 20.12,34.41C22.24,33.34 14.83,34.71 14.83,32.41C14.83,30.49 8.16,32.33 15.1,29.41C21.18,26.88 35.1,25.31 36.97,27.75C38.84,30.19 39.24,28.89 41.24,30.56C44.74,33.47 52.38,35.96 43.65,35.78C34.92,35.6 43.17,36.78 35.72,36.57C34,36.54 33,39.39 29.12,37.91Z" style="fill:rgb(208,21,96);fill-rule:nonzero;"/>
            <path d="M43.39,19.11C37.67,15.85 40.14,20.83 36.32,15.04C34.96,12.97 35.92,16.39 32.24,12.72C29.18,9.66 31,13.72 27.56,7.94C24.56,2.94 24.35,-1.93 28.56,1.66C32.77,5.25 30.76,3.09 33.74,5.42C39,9.49 44.2,12.17 42.47,13.35C40.74,14.53 44.06,15.1 42.4,15.92C42,16.11 46.4,20.82 43.39,19.11Z" style="fill:rgb(208,21,96);fill-rule:nonzero;"/>
            <path d="M14.05,29.72C10.17,33.94 12.5,38.91 9.25,34.85C8.09,33.4 9.25,38.17 6.48,37.85C4.16,37.61 5.94,41.98 2.91,37.31C0.26,33.24 -0.73,24.39 2.34,23.56C5.41,22.73 3.87,22.29 6,21.27C9.75,19.47 13.24,15.05 12.46,20.44C11.68,25.83 13.7,20.87 12.89,25.44C12.71,26.53 16.09,27.5 14.05,29.72Z" style="fill:rgb(208,21,96);fill-rule:nonzero;"/>
            <ellipse cx="13.49" cy="12.29" rx="1.22" ry="1.23" style="fill:rgb(203,20,92);"/>
            <ellipse cx="34.89" cy="40.9" rx="1.86" ry="1.92" style="fill:rgb(203,20,92);"/>
            <g transform="matrix(0.41231,-0.911044,0.911044,0.41231,-22.4,53.57)">
                <ellipse cx="30.32" cy="44.14" rx="1.22" ry="1.23" style="fill:rgb(203,20,92);"/>
            </g>
            <ellipse cx="20.44" cy="11.06" rx="3.35" ry="2.89" style="fill:rgb(203,20,92);"/>
            <ellipse cx="40.7" cy="35.03" rx="1.22" ry="1.23" style="fill:rgb(249,48,128);"/>
            <ellipse cx="16.18" cy="16.28" rx="2.05" ry="2.42" style="fill:rgb(203,20,92);"/>
            <ellipse cx="17.09" cy="5.47" rx="1.22" ry="1.23" style="fill:rgb(226,17,100);"/>
        </g>
    </g>
</svg>
