<?xml version="1.0" encoding="UTF-8" standalone="no"?>
<!DOCTYPE svg PUBLIC "-//W3C//DTD SVG 1.1//EN" "http://www.w3.org/Graphics/SVG/1.1/DTD/svg11.dtd">
<svg width="100%" height="100%" viewBox="0 0 563 804" version="1.1" xmlns="http://www.w3.org/2000/svg" xmlns:xlink="http://www.w3.org/1999/xlink" xml:space="preserve" xmlns:serif="http://www.serif.com/" style="fill-rule:evenodd;clip-rule:evenodd;stroke-linejoin:round;stroke-miterlimit:2;">
    <g id="Layer2">
        <g id="Layer3">
            <g transform="matrix(0.972132,0,0,1.1129,9.44162,-41.099)">
                <path d="M272.491,267.833C269.138,286.17 271.76,306.428 236.396,318.896C220.68,324.436 195.497,353.185 269.062,357.562C295.242,359.12 264.936,392.972 257.729,400.229C245.909,412.131 249.692,422.014 271.062,418.896C310.827,413.093 282.254,462.812 286.396,458.229C312.427,429.421 359.238,413.019 325.062,404.896C298.879,398.672 304.421,386.127 325.729,376.896C338.432,371.392 371.774,347.021 360.396,332.896C341.827,309.844 289.889,321.682 307.043,268.364L272.491,267.833Z" style="fill:rgb(255,148,0);"/>
            </g>
            <path d="M282.396,267.562C281.839,303.561 265.81,319.598 259.729,328.229C244.124,350.375 281.42,338.628 294.396,348.896C304.964,357.258 280.563,391.163 284.396,388.229C312.856,366.442 351.639,331.573 329.729,328.896C283.99,323.305 291.883,282.972 295.062,269.562C296.048,265.403 282.462,263.288 282.396,267.562Z" style="fill:rgb(251,199,34);"/>
        </g>
    </g>
    <path d="M283.408,62.44C261.598,92.985 248.312,133.441 248.312,177.788C248.312,209.645 255.168,239.494 267.114,265.103C242.564,227.928 223.127,131.447 283.408,62.44Z" style="fill:rgb(44,10,22);"/>
    <g transform="matrix(1,0,0,0.879346,0,6.10295)">
        <g transform="matrix(0.649099,-0.00634096,0.00561583,0.743448,82.9544,87.1342)">
            <path d="M263.812,186.788C263.812,186.788 214.821,210.006 204.608,228.038C192.524,249.371 191.312,314.788 191.312,314.788L286.312,238.288L263.812,186.788Z" style="fill:rgb(44,10,22);"/>
        </g>
        <g transform="matrix(-0.649099,-0.00634096,-0.00561583,0.743448,500.086,85.6179)">
            <path d="M263.812,186.788C263.812,186.788 214.821,210.006 204.608,228.038C192.524,249.371 191.312,314.788 191.312,314.788L286.312,238.288L263.812,186.788Z" style="fill:rgb(44,10,22);"/>
        </g>
        <g transform="matrix(0.983538,0,0,0.817995,2.63303,79.7686)">
            <rect x="271.312" y="261.538" width="40.5" height="9.5" style="fill:rgb(46,0,15);"/>
        </g>
        <path d="M288.812,50.582C215.403,130.144 236.616,251.004 262.812,294.582L317.312,295.082C353.674,209.119 342.79,104.375 288.812,50.582Z" style="fill:rgb(191,27,82);"/>
        <path d="M289.312,51.083C342.857,105.023 353.562,209.385 317.312,295.082L289.312,294.825L289.312,51.083Z" style="fill:rgb(192,11,72);"/>
        <g transform="matrix(1,0,0,1,-0.0714384,-0.162459)">
            <path d="M289.312,60.068L289.312,51.083C342.857,105.023 353.562,209.385 317.312,295.082L310.057,295.016C322.072,267.797 329.312,232.692 329.312,194.393C329.312,137.381 313.268,87.445 289.312,60.068Z" style="fill:rgb(175,10,65);"/>
        </g>
        <g transform="matrix(1,0,0,1.13721,2.84217e-14,-6.94033)">
            <path d="M283.408,62.44C261.598,92.985 248.312,133.441 248.312,177.788C248.312,209.645 255.168,239.494 267.114,265.103C242.564,227.928 223.127,131.447 283.408,62.44Z" style="fill:rgb(204,44,98);"/>
        </g>
        <g transform="matrix(1.26712,0,0,1,-81.8365,0)">
            <clipPath id="_clip1">
                <path d="M292.614,50.582C233.956,130.144 250.907,251.004 271.839,294.582L315.386,295.082C344.441,209.119 335.744,104.375 292.614,50.582Z"/>
            </clipPath>
            <g clip-path="url(#_clip1)">
                <ellipse cx="293.812" cy="26.954" rx="83.5" ry="64.75" style="fill:rgb(44,10,22);"/>
                <clipPath id="_clip2">
                    <ellipse cx="293.812" cy="26.954" rx="83.5" ry="64.75"/>
                </clipPath>
                <g clip-path="url(#_clip2)">
                    <g transform="matrix(0.789189,0,0,1.13721,64.5845,-6.94033)">
                        <path d="M283.408,62.44C261.598,92.985 248.312,133.441 248.312,177.788C248.312,209.645 255.168,239.494 267.114,265.103C242.564,227.928 223.127,131.447 283.408,62.44Z" style="fill:rgb(59,16,31);"/>
                    </g>
                </g>
            </g>
        </g>
        <g transform="matrix(1.00464,0,0,1,-1.10584,-0.162459)">
            <clipPath id="_clip3">
                <path d="M288.812,50.582C215.403,130.144 236.616,251.004 262.812,294.582L317.312,295.082C353.674,209.119 342.79,104.375 288.812,50.582Z"/>
            </clipPath>
            <g clip-path="url(#_clip3)">
                <path d="M217.312,73.268C197.881,61.508 185.812,45.097 185.812,26.954C185.812,-8.782 232.637,-37.796 290.312,-37.796C347.987,-37.796 394.812,-8.782 394.812,26.954C394.812,62.691 347.987,91.704 290.312,91.704C289.644,91.704 288.977,91.7 288.312,91.692L288.312,11.704L217.312,11.704L217.312,73.268Z" style="fill:rgb(33,6,15);"/>
            </g>
        </g>
    </g>
    <g>
        <g transform="matrix(1,0,0,1,-3.49998,0.500002)">
            <circle cx="292.312" cy="138.082" r="24.5" style="fill:rgb(44,10,22);"/>
        </g>
        <g transform="matrix(0.821428,0,0,0.821428,48.8236,79.7825)">
            <circle cx="292.312" cy="138.082" r="24.5" style="fill:rgb(44,10,22);"/>
        </g>
        <g transform="matrix(0.591837,0,0,0.591837,116.061,111.86)">
            <circle cx="292.312" cy="138.082" r="24.5" style="fill:rgb(205,204,192);"/>
        </g>
        <g transform="matrix(0.760204,0,0,0.760204,66.4703,33.7365)">
            <circle cx="292.312" cy="138.082" r="24.5" style="fill:rgb(205,204,192);"/>
        </g>
        <g transform="matrix(-1,0,0,1,580.573,0.550004)">
            <path d="M301.048,125.877C303.566,128.211 305.86,133.198 306.151,134.662C306.369,135.76 303.861,134.769 302.993,134.062C301.936,133.201 300.1,130.96 299.809,129.496C299.561,128.245 301.048,125.877 301.048,125.877Z" style="fill:rgb(223,223,218);"/>
        </g>
        <g transform="matrix(-1,0,0,1,580.573,0.550004)">
            <path d="M298.373,128.133C297.605,128.362 295.531,127.012 294.962,126.018C294.394,125.023 294.195,122.395 294.962,122.166C295.73,121.937 298.999,123.652 299.567,124.646C300.136,125.641 299.14,127.905 298.373,128.133Z" style="fill:rgb(223,223,218);"/>
        </g>
        <g transform="matrix(-0.709462,0,0,0.709462,495.222,95.4378)">
            <path d="M301.048,125.877C303.566,128.211 305.86,133.198 306.151,134.662C306.369,135.76 303.861,134.769 302.993,134.062C301.936,133.201 300.1,130.96 299.809,129.496C299.561,128.245 301.048,125.877 301.048,125.877Z" style="fill:rgb(223,223,218);"/>
        </g>
        <g transform="matrix(-0.709462,0,0,0.709462,495.222,95.4378)">
            <path d="M298.373,128.133C297.605,128.362 295.531,127.012 294.962,126.018C294.394,125.023 294.195,122.395 294.962,122.166C295.73,121.937 298.999,123.652 299.567,124.646C300.136,125.641 299.14,127.905 298.373,128.133Z" style="fill:rgb(223,223,218);"/>
        </g>
    </g>
</svg>
