<?xml version="1.0" encoding="UTF-8" standalone="no"?>
<!DOCTYPE svg PUBLIC "-//W3C//DTD SVG 1.1//EN" "http://www.w3.org/Graphics/SVG/1.1/DTD/svg11.dtd">
<svg width="100%" height="100%" viewBox="0 0 878 518" version="1.1" xmlns="http://www.w3.org/2000/svg" xmlns:xlink="http://www.w3.org/1999/xlink" xml:space="preserve" xmlns:serif="http://www.serif.com/" style="fill-rule:evenodd;clip-rule:evenodd;stroke-linejoin:round;stroke-miterlimit:2;">
    <g id="Artboard1" transform="matrix(1,0,0,1,-1.58621,1.44827)">
        <rect x="1.586" y="-1.448" width="877.966" height="517.103" style="fill:none;"/>
        <g transform="matrix(1,0,0,1,24.5862,24.5517)">
            <g>
                <g>
                    <g id="star" transform="matrix(2.45737,0,0,2.45737,387.96,45.3371)">
                        <g transform="matrix(1,0,0,1,-4.985,-5.08)">
                            <path id="Layer_1-2" d="M3.19,10.16L3.02,6.6L0,4.71L3.34,3.46L4.19,0L6.42,2.79L9.97,2.53L8.01,5.51L9.35,8.81L5.91,7.86L3.19,10.16Z" style="fill:rgb(170,70,155);fill-rule:nonzero;"/>
                        </g>
                    </g>
                    <g id="star1" serif:id="star" transform="matrix(2.05749,0,0,2.05749,824.879,270.655)">
                        <g transform="matrix(1,0,0,1,-4.985,-5.08)">
                            <path id="Layer_1-21" serif:id="Layer_1-2" d="M3.19,10.16L3.02,6.6L0,4.71L3.34,3.46L4.19,0L6.42,2.79L9.97,2.53L8.01,5.51L9.35,8.81L5.91,7.86L3.19,10.16Z" style="fill:rgb(170,70,155);fill-rule:nonzero;"/>
                        </g>
                    </g>
                </g>
                <g>
                    <g id="star2" serif:id="star" transform="matrix(1.73071,0,0,1.73071,701.174,14.3279)">
                        <g transform="matrix(1,0,0,1,-4.985,-5.08)">
                            <path id="Layer_1-22" serif:id="Layer_1-2" d="M3.19,10.16L3.02,6.6L0,4.71L3.34,3.46L4.19,0L6.42,2.79L9.97,2.53L8.01,5.51L9.35,8.81L5.91,7.86L3.19,10.16Z" style="fill:rgb(170,70,155);fill-rule:nonzero;"/>
                        </g>
                    </g>
                    <g id="star3" serif:id="star" transform="matrix(2.18995,0,0,2.18995,626.026,170.381)">
                        <g transform="matrix(1,0,0,1,-4.985,-5.08)">
                            <path id="Layer_1-23" serif:id="Layer_1-2" d="M3.19,10.16L3.02,6.6L0,4.71L3.34,3.46L4.19,0L6.42,2.79L9.97,2.53L8.01,5.51L9.35,8.81L5.91,7.86L3.19,10.16Z" style="fill:rgb(170,70,155);fill-rule:nonzero;"/>
                        </g>
                    </g>
                    <g id="star4" serif:id="star" transform="matrix(2.18995,0,0,2.18995,484.535,201.633)">
                        <g transform="matrix(1,0,0,1,-4.985,-5.08)">
                            <path id="Layer_1-24" serif:id="Layer_1-2" d="M3.19,10.16L3.02,6.6L0,4.71L3.34,3.46L4.19,0L6.42,2.79L9.97,2.53L8.01,5.51L9.35,8.81L5.91,7.86L3.19,10.16Z" style="fill:rgb(170,70,155);fill-rule:nonzero;"/>
                        </g>
                    </g>
                    <g id="star5" serif:id="star" transform="matrix(1.85942,0,0,1.85942,721.866,461.213)">
                        <g transform="matrix(1,0,0,1,-4.985,-5.08)">
                            <path id="Layer_1-25" serif:id="Layer_1-2" d="M3.19,10.16L3.02,6.6L0,4.71L3.34,3.46L4.19,0L6.42,2.79L9.97,2.53L8.01,5.51L9.35,8.81L5.91,7.86L3.19,10.16Z" style="fill:rgb(170,70,155);fill-rule:nonzero;"/>
                        </g>
                    </g>
                    <g id="star6" serif:id="star" transform="matrix(1.85942,0,0,1.85942,317.866,428.315)">
                        <g transform="matrix(1,0,0,1,-4.985,-5.08)">
                            <path id="Layer_1-26" serif:id="Layer_1-2" d="M3.19,10.16L3.02,6.6L0,4.71L3.34,3.46L4.19,0L6.42,2.79L9.97,2.53L8.01,5.51L9.35,8.81L5.91,7.86L3.19,10.16Z" style="fill:rgb(170,70,155);fill-rule:nonzero;"/>
                        </g>
                    </g>
                </g>
                <g transform="matrix(1,0,0,1,-33.3021,-121.856)">
                    <g id="star7" serif:id="star" transform="matrix(2.18995,0,0,2.18995,45.5517,204.661)">
                        <g transform="matrix(1,0,0,1,-4.985,-5.08)">
                            <path id="Layer_1-27" serif:id="Layer_1-2" d="M3.19,10.16L3.02,6.6L0,4.71L3.34,3.46L4.19,0L6.42,2.79L9.97,2.53L8.01,5.51L9.35,8.81L5.91,7.86L3.19,10.16Z" style="fill:rgb(170,70,155);fill-rule:nonzero;"/>
                        </g>
                    </g>
                    <g id="star8" serif:id="star" transform="matrix(1.85942,0,0,1.85942,721.866,481.648)">
                        <g transform="matrix(1,0,0,1,-4.985,-5.08)">
                            <path id="Layer_1-28" serif:id="Layer_1-2" d="M3.19,10.16L3.02,6.6L0,4.71L3.34,3.46L4.19,0L6.42,2.79L9.97,2.53L8.01,5.51L9.35,8.81L5.91,7.86L3.19,10.16Z" style="fill:rgb(170,70,155);fill-rule:nonzero;"/>
                        </g>
                    </g>
                    <g id="star9" serif:id="star" transform="matrix(1.85942,0,0,1.85942,317.866,428.315)">
                        <g transform="matrix(1,0,0,1,-4.985,-5.08)">
                            <path id="Layer_1-29" serif:id="Layer_1-2" d="M3.19,10.16L3.02,6.6L0,4.71L3.34,3.46L4.19,0L6.42,2.79L9.97,2.53L8.01,5.51L9.35,8.81L5.91,7.86L3.19,10.16Z" style="fill:rgb(170,70,155);fill-rule:nonzero;"/>
                        </g>
                    </g>
                </g>
                <g>
                    <g id="star10" serif:id="star" transform="matrix(1.85942,0,0,1.85942,679.199,114.982)">
                        <g transform="matrix(1,0,0,1,-4.985,-5.08)">
                            <path id="Layer_1-210" serif:id="Layer_1-2" d="M3.19,10.16L3.02,6.6L0,4.71L3.34,3.46L4.19,0L6.42,2.79L9.97,2.53L8.01,5.51L9.35,8.81L5.91,7.86L3.19,10.16Z" style="fill:rgb(170,70,155);fill-rule:nonzero;"/>
                        </g>
                    </g>
                    <g id="star11" serif:id="star" transform="matrix(1.2586,0,0,1.2586,45.6001,278.1)">
                        <g transform="matrix(1,0,0,1,-4.985,-5.08)">
                            <path id="Layer_1-211" serif:id="Layer_1-2" d="M3.19,10.16L3.02,6.6L0,4.71L3.34,3.46L4.19,0L6.42,2.79L9.97,2.53L8.01,5.51L9.35,8.81L5.91,7.86L3.19,10.16Z" style="fill:rgb(170,70,155);fill-rule:nonzero;"/>
                        </g>
                    </g>
                    <g id="star12" serif:id="star" transform="matrix(1.2586,0,0,1.2586,656.392,277.343)">
                        <g transform="matrix(1,0,0,1,-4.985,-5.08)">
                            <path id="Layer_1-212" serif:id="Layer_1-2" d="M3.19,10.16L3.02,6.6L0,4.71L3.34,3.46L4.19,0L6.42,2.79L9.97,2.53L8.01,5.51L9.35,8.81L5.91,7.86L3.19,10.16Z" style="fill:rgb(170,70,155);fill-rule:nonzero;"/>
                        </g>
                    </g>
                    <g id="star13" serif:id="star" transform="matrix(1.85942,0,0,1.85942,344.866,122.315)">
                        <g transform="matrix(1,0,0,1,-4.985,-5.08)">
                            <path id="Layer_1-213" serif:id="Layer_1-2" d="M3.19,10.16L3.02,6.6L0,4.71L3.34,3.46L4.19,0L6.42,2.79L9.97,2.53L8.01,5.51L9.35,8.81L5.91,7.86L3.19,10.16Z" style="fill:rgb(170,70,155);fill-rule:nonzero;"/>
                        </g>
                    </g>
                </g>
                <g>
                    <g id="star14" serif:id="star" transform="matrix(1.19587,0,0,1.19587,107.841,443.611)">
                        <g transform="matrix(1,0,0,1,-4.985,-5.08)">
                            <path id="Layer_1-214" serif:id="Layer_1-2" d="M3.19,10.16L3.02,6.6L0,4.71L3.34,3.46L4.19,0L6.42,2.79L9.97,2.53L8.01,5.51L9.35,8.81L5.91,7.86L3.19,10.16Z" style="fill:rgb(170,70,155);fill-rule:nonzero;"/>
                        </g>
                    </g>
                    <g id="star15" serif:id="star" transform="matrix(2.45612,0,0,2.45612,558.879,267.346)">
                        <g transform="matrix(1,0,0,1,-4.985,-5.08)">
                            <path id="Layer_1-215" serif:id="Layer_1-2" d="M3.19,10.16L3.02,6.6L0,4.71L3.34,3.46L4.19,0L6.42,2.79L9.97,2.53L8.01,5.51L9.35,8.81L5.91,7.86L3.19,10.16Z" style="fill:rgb(170,70,155);fill-rule:nonzero;"/>
                        </g>
                    </g>
                </g>
                <g>
                    <g id="star16" serif:id="star" transform="matrix(3.71387,0,0,3.71387,779.288,29.7357)">
                        <g transform="matrix(1,0,0,1,-4.985,-5.08)">
                            <clipPath id="_clip1">
                                <rect x="0" y="0" width="9.97" height="10.16"/>
                            </clipPath>
                            <g clip-path="url(#_clip1)">
                                <path id="Layer_1-216" serif:id="Layer_1-2" d="M3.19,10.16L3.02,6.6L0,4.71L3.34,3.46L4.19,0L6.42,2.79L9.97,2.53L8.01,5.51L9.35,8.81L5.91,7.86L3.19,10.16Z" style="fill:rgb(170,70,155);fill-rule:nonzero;"/>
                            </g>
                        </g>
                    </g>
                    <g id="star17" serif:id="star" transform="matrix(2.72229,0,0,2.72229,489.565,427.365)">
                        <g transform="matrix(1,0,0,1,-4.985,-5.08)">
                            <path id="Layer_1-217" serif:id="Layer_1-2" d="M3.19,10.16L3.02,6.6L0,4.71L3.34,3.46L4.19,0L6.42,2.79L9.97,2.53L8.01,5.51L9.35,8.81L5.91,7.86L3.19,10.16Z" style="fill:rgb(170,70,155);fill-rule:nonzero;"/>
                        </g>
                    </g>
                    <g id="star18" serif:id="star" transform="matrix(3.18278,0,0,3.18278,31.6653,421.516)">
                        <g transform="matrix(1,0,0,1,-4.985,-5.08)">
                            <path id="Layer_1-218" serif:id="Layer_1-2" d="M3.19,10.16L3.02,6.6L0,4.71L3.34,3.46L4.19,0L6.42,2.79L9.97,2.53L8.01,5.51L9.35,8.81L5.91,7.86L3.19,10.16Z" style="fill:rgb(170,70,155);fill-rule:nonzero;"/>
                        </g>
                    </g>
                    <g id="star19" serif:id="star" transform="matrix(2.32616,0,0,2.32616,244.873,26.6861)">
                        <g transform="matrix(1,0,0,1,-4.985,-5.08)">
                            <path id="Layer_1-219" serif:id="Layer_1-2" d="M3.19,10.16L3.02,6.6L0,4.71L3.34,3.46L4.19,0L6.42,2.79L9.97,2.53L8.01,5.51L9.35,8.81L5.91,7.86L3.19,10.16Z" style="fill:rgb(170,70,155);fill-rule:nonzero;"/>
                        </g>
                    </g>
                </g>
                <g id="star20" serif:id="star" transform="matrix(1.85942,0,0,1.85942,231.348,213.847)">
                    <g transform="matrix(1,0,0,1,-4.985,-5.08)">
                        <path id="Layer_1-220" serif:id="Layer_1-2" d="M3.19,10.16L3.02,6.6L0,4.71L3.34,3.46L4.19,0L6.42,2.79L9.97,2.53L8.01,5.51L9.35,8.81L5.91,7.86L3.19,10.16Z" style="fill:rgb(170,70,155);fill-rule:nonzero;"/>
                    </g>
                </g>
                <g transform="matrix(1,0,0,1,-93.8515,-180.134)">
                    <g id="star21" serif:id="star" transform="matrix(2.72229,0,0,2.72229,475.643,420.518)">
                        <g transform="matrix(1,0,0,1,-4.985,-5.08)">
                            <path id="Layer_1-221" serif:id="Layer_1-2" d="M3.19,10.16L3.02,6.6L0,4.71L3.34,3.46L4.19,0L6.42,2.79L9.97,2.53L8.01,5.51L9.35,8.81L5.91,7.86L3.19,10.16Z" style="fill:rgb(170,70,155);fill-rule:nonzero;"/>
                        </g>
                    </g>
                </g>
            </g>
        </g>
        <g transform="matrix(-0.364755,0.931103,-0.931103,-0.364755,730.201,-270.243)">
            <g>
                <g>
                    <g id="star22" serif:id="star" transform="matrix(2.45737,0,0,2.45737,434.885,28.686)">
                        <g transform="matrix(1,0,0,1,-4.985,-5.08)">
                            <path id="Layer_1-222" serif:id="Layer_1-2" d="M3.19,10.16L3.02,6.6L0,4.71L3.34,3.46L4.19,0L6.42,2.79L9.97,2.53L8.01,5.51L9.35,8.81L5.91,7.86L3.19,10.16Z" style="fill:rgb(170,70,155);fill-rule:nonzero;"/>
                        </g>
                    </g>
                    <g id="star23" serif:id="star" transform="matrix(2.05749,0,0,2.05749,824.879,270.655)">
                        <g transform="matrix(1,0,0,1,-4.985,-5.08)">
                            <clipPath id="_clip2">
                                <rect x="0" y="0" width="9.97" height="10.16"/>
                            </clipPath>
                            <g clip-path="url(#_clip2)">
                                <path id="Layer_1-223" serif:id="Layer_1-2" d="M3.19,10.16L3.02,6.6L0,4.71L3.34,3.46L4.19,0L6.42,2.79L9.97,2.53L8.01,5.51L9.35,8.81L5.91,7.86L3.19,10.16Z" style="fill:rgb(170,70,155);fill-rule:nonzero;"/>
                            </g>
                        </g>
                    </g>
                </g>
                <g>
                    <g id="star24" serif:id="star" transform="matrix(1.73071,0,0,1.73071,701.174,14.3279)">
                        <g transform="matrix(1,0,0,1,-4.985,-5.08)">
                            <path id="Layer_1-224" serif:id="Layer_1-2" d="M3.19,10.16L3.02,6.6L0,4.71L3.34,3.46L4.19,0L6.42,2.79L9.97,2.53L8.01,5.51L9.35,8.81L5.91,7.86L3.19,10.16Z" style="fill:rgb(170,70,155);fill-rule:nonzero;"/>
                        </g>
                    </g>
                    <g id="star25" serif:id="star" transform="matrix(2.18995,0,0,2.18995,471.5,-213.335)">
                        <g transform="matrix(1,0,0,1,-4.985,-5.08)">
                            <path id="Layer_1-225" serif:id="Layer_1-2" d="M3.19,10.16L3.02,6.6L0,4.71L3.34,3.46L4.19,0L6.42,2.79L9.97,2.53L8.01,5.51L9.35,8.81L5.91,7.86L3.19,10.16Z" style="fill:rgb(170,70,155);fill-rule:nonzero;"/>
                        </g>
                    </g>
                    <g id="star26" serif:id="star" transform="matrix(1.85942,0,0,1.85942,721.866,481.648)">
                        <g transform="matrix(1,0,0,1,-4.985,-5.08)">
                            <path id="Layer_1-226" serif:id="Layer_1-2" d="M3.19,10.16L3.02,6.6L0,4.71L3.34,3.46L4.19,0L6.42,2.79L9.97,2.53L8.01,5.51L9.35,8.81L5.91,7.86L3.19,10.16Z" style="fill:rgb(170,70,155);fill-rule:nonzero;"/>
                        </g>
                    </g>
                </g>
                <g transform="matrix(1,0,0,1,-33.3021,-121.856)">
                    <g id="star27" serif:id="star" transform="matrix(1.73071,0,0,1.73071,382.408,92.8695)">
                        <g transform="matrix(1,0,0,1,-4.985,-5.08)">
                            <path id="Layer_1-227" serif:id="Layer_1-2" d="M3.19,10.16L3.02,6.6L0,4.71L3.34,3.46L4.19,0L6.42,2.79L9.97,2.53L8.01,5.51L9.35,8.81L5.91,7.86L3.19,10.16Z" style="fill:rgb(170,70,155);fill-rule:nonzero;"/>
                        </g>
                    </g>
                    <g id="star28" serif:id="star" transform="matrix(1.85942,0,0,1.85942,721.866,481.648)">
                        <g transform="matrix(1,0,0,1,-4.985,-5.08)">
                            <path id="Layer_1-228" serif:id="Layer_1-2" d="M3.19,10.16L3.02,6.6L0,4.71L3.34,3.46L4.19,0L6.42,2.79L9.97,2.53L8.01,5.51L9.35,8.81L5.91,7.86L3.19,10.16Z" style="fill:rgb(170,70,155);fill-rule:nonzero;"/>
                        </g>
                    </g>
                </g>
                <g>
                    <g id="star29" serif:id="star" transform="matrix(1.85942,0,0,1.85942,418.463,-237.271)">
                        <g transform="matrix(1,0,0,1,-4.985,-5.08)">
                            <path id="Layer_1-229" serif:id="Layer_1-2" d="M3.19,10.16L3.02,6.6L0,4.71L3.34,3.46L4.19,0L6.42,2.79L9.97,2.53L8.01,5.51L9.35,8.81L5.91,7.86L3.19,10.16Z" style="fill:rgb(170,70,155);fill-rule:nonzero;"/>
                        </g>
                    </g>
                    <g id="star30" serif:id="star" transform="matrix(1.85942,0,0,1.85942,354.776,72.9121)">
                        <g transform="matrix(1,0,0,1,-4.985,-5.08)">
                            <path id="Layer_1-230" serif:id="Layer_1-2" d="M3.19,10.16L3.02,6.6L0,4.71L3.34,3.46L4.19,0L6.42,2.79L9.97,2.53L8.01,5.51L9.35,8.81L5.91,7.86L3.19,10.16Z" style="fill:rgb(170,70,155);fill-rule:nonzero;"/>
                        </g>
                    </g>
                </g>
                <g id="star31" serif:id="star" transform="matrix(2.45612,0,0,2.45612,574.425,373.432)">
                    <g transform="matrix(1,0,0,1,-4.985,-5.08)">
                        <path id="Layer_1-231" serif:id="Layer_1-2" d="M3.19,10.16L3.02,6.6L0,4.71L3.34,3.46L4.19,0L6.42,2.79L9.97,2.53L8.01,5.51L9.35,8.81L5.91,7.86L3.19,10.16Z" style="fill:rgb(170,70,155);fill-rule:nonzero;"/>
                    </g>
                </g>
                <g>
                    <g id="star32" serif:id="star" transform="matrix(3.71387,0,0,3.71387,846.207,165.282)">
                        <g transform="matrix(1,0,0,1,-4.985,-5.08)">
                            <path id="Layer_1-232" serif:id="Layer_1-2" d="M3.19,10.16L3.02,6.6L0,4.71L3.34,3.46L4.19,0L6.42,2.79L9.97,2.53L8.01,5.51L9.35,8.81L5.91,7.86L3.19,10.16Z" style="fill:rgb(170,70,155);fill-rule:nonzero;"/>
                        </g>
                    </g>
                    <g id="star33" serif:id="star" transform="matrix(2.72229,0,0,2.72229,489.565,427.365)">
                        <g transform="matrix(1,0,0,1,-4.985,-5.08)">
                            <path id="Layer_1-233" serif:id="Layer_1-2" d="M3.19,10.16L3.02,6.6L0,4.71L3.34,3.46L4.19,0L6.42,2.79L9.97,2.53L8.01,5.51L9.35,8.81L5.91,7.86L3.19,10.16Z" style="fill:rgb(170,70,155);fill-rule:nonzero;"/>
                        </g>
                    </g>
                </g>
                <g transform="matrix(1,0,0,1,-93.8515,-180.134)">
                    <g id="star34" serif:id="star" transform="matrix(3.71387,0,0,3.71387,779.288,29.7357)">
                        <g transform="matrix(1,0,0,1,-4.985,-5.08)">
                            <path id="Layer_1-234" serif:id="Layer_1-2" d="M3.19,10.16L3.02,6.6L0,4.71L3.34,3.46L4.19,0L6.42,2.79L9.97,2.53L8.01,5.51L9.35,8.81L5.91,7.86L3.19,10.16Z" style="fill:rgb(170,70,155);fill-rule:nonzero;"/>
                        </g>
                    </g>
                    <g id="star35" serif:id="star" transform="matrix(2.72229,0,0,2.72229,694.397,-159.302)">
                        <g transform="matrix(1,0,0,1,-4.985,-5.08)">
                            <path id="Layer_1-235" serif:id="Layer_1-2" d="M3.19,10.16L3.02,6.6L0,4.71L3.34,3.46L4.19,0L6.42,2.79L9.97,2.53L8.01,5.51L9.35,8.81L5.91,7.86L3.19,10.16Z" style="fill:rgb(170,70,155);fill-rule:nonzero;"/>
                        </g>
                    </g>
                </g>
            </g>
        </g>
    </g>
</svg>
