<?xml version="1.0" encoding="UTF-8" standalone="no"?>
<!DOCTYPE svg PUBLIC "-//W3C//DTD SVG 1.1//EN" "http://www.w3.org/Graphics/SVG/1.1/DTD/svg11.dtd">
<svg width="100%" height="100%" viewBox="0 0 3756 2365" version="1.1" xmlns="http://www.w3.org/2000/svg" xmlns:xlink="http://www.w3.org/1999/xlink" xml:space="preserve" xmlns:serif="http://www.serif.com/" style="fill-rule:evenodd;clip-rule:evenodd;stroke-linejoin:round;stroke-miterlimit:2;">
    <g id="Artboard1" transform="matrix(0.573588,0,0,0.967581,965.858,-450.971)">
        <rect x="-1683.89" y="466.081" width="6546.77" height="2443.25" style="fill:none;"/>
        <g transform="matrix(1.74341,0,0,1.0335,-3289.63,-97.4765)">
            <g opacity="0.45">
                <g id="Layer_1-2" transform="matrix(6.25531,0,0,6.25531,1179.08,1869.01)">
                    <path d="M3.19,10.16L3.02,6.6L0,4.71L3.34,3.46L4.19,0L6.42,2.79L9.97,2.53L8.01,5.51L9.35,8.81L5.91,7.86L3.19,10.16Z" style="fill:rgb(170,70,155);fill-rule:nonzero;"/>
                </g>
                <g id="Layer_1-21" serif:id="Layer_1-2" transform="matrix(7.08827,0,0,7.08827,4525.2,882.61)">
                    <path d="M3.19,10.16L3.02,6.6L0,4.71L3.34,3.46L4.19,0L6.42,2.79L9.97,2.53L8.01,5.51L9.35,8.81L5.91,7.86L3.19,10.16Z" style="fill:rgb(170,70,155);fill-rule:nonzero;"/>
                </g>
                <g id="Layer_1-22" serif:id="Layer_1-2" transform="matrix(6.25531,0,0,6.25531,1630.33,717.785)">
                    <path d="M3.19,10.16L3.02,6.6L0,4.71L3.34,3.46L4.19,0L6.42,2.79L9.97,2.53L8.01,5.51L9.35,8.81L5.91,7.86L3.19,10.16Z" style="fill:rgb(170,70,155);fill-rule:nonzero;"/>
                </g>
                <g id="Layer_1-23" serif:id="Layer_1-2" transform="matrix(6.70795,0,0,7.49345,1625.81,1792.78)">
                    <path d="M3.19,10.16L3.02,6.6L0,4.71L3.34,3.46L4.19,0L6.42,2.79L9.97,2.53L8.01,5.51L9.35,8.81L5.91,7.86L3.19,10.16Z" style="fill:rgb(170,70,155);fill-rule:nonzero;"/>
                </g>
            </g>
        </g>
        <g transform="matrix(1.74341,0,0,1.0335,-3289.63,-97.4765)">
            <g opacity="0.5">
                <g id="Layer_1-24" serif:id="Layer_1-2" transform="matrix(4.16095,0,0,4.16095,1858.59,2512.27)">
                    <path d="M3.19,10.16L3.02,6.6L0,4.71L3.34,3.46L4.19,0L6.42,2.79L9.97,2.53L8.01,5.51L9.35,8.81L5.91,7.86L3.19,10.16Z" style="fill:rgb(170,70,155);fill-rule:nonzero;"/>
                </g>
                <g id="Layer_1-25" serif:id="Layer_1-2" transform="matrix(3.73098,-6.15727,6.15727,3.73098,3180.24,870.845)">
                    <path d="M3.19,10.16L3.02,6.6L0,4.71L3.34,3.46L4.19,0L6.42,2.79L9.97,2.53L8.01,5.51L9.35,8.81L5.91,7.86L3.19,10.16Z" style="fill:rgb(170,70,155);fill-rule:nonzero;"/>
                </g>
                <g id="Layer_1-26" serif:id="Layer_1-2" transform="matrix(3.35177,-5.53146,5.53146,3.35177,3833.34,1177)">
                    <path d="M3.19,10.16L3.02,6.6L0,4.71L3.34,3.46L4.19,0L6.42,2.79L9.97,2.53L8.01,5.51L9.35,8.81L5.91,7.86L3.19,10.16Z" style="fill:rgb(170,70,155);fill-rule:nonzero;"/>
                </g>
                <g id="Layer_1-27" serif:id="Layer_1-2" transform="matrix(2.48179,-4.09573,4.09573,2.48179,3051.62,2010.8)">
                    <path d="M3.19,10.16L3.02,6.6L0,4.71L3.34,3.46L4.19,0L6.42,2.79L9.97,2.53L8.01,5.51L9.35,8.81L5.91,7.86L3.19,10.16Z" style="fill:rgb(170,70,155);fill-rule:nonzero;"/>
                </g>
            </g>
        </g>
        <g transform="matrix(1.74341,0,0,1.0335,-3289.63,-97.4765)">
            <g opacity="0.6">
                <g id="Layer_1-28" serif:id="Layer_1-2" transform="matrix(2.48179,-4.09573,4.09573,2.48179,4538.7,2688.01)">
                    <path d="M3.19,10.16L3.02,6.6L0,4.71L3.34,3.46L4.19,0L6.42,2.79L9.97,2.53L8.01,5.51L9.35,8.81L5.91,7.86L3.19,10.16Z" style="fill:rgb(170,70,155);fill-rule:nonzero;"/>
                </g>
                <g id="Layer_1-29" serif:id="Layer_1-2" transform="matrix(3.87385,0.659647,-0.656333,3.85439,2837.01,1040.44)">
                    <path d="M3.19,10.16L3.02,6.6L0,4.71L3.34,3.46L4.19,0L6.42,2.79L9.97,2.53L8.01,5.51L9.35,8.81L5.91,7.86L3.19,10.16Z" style="fill:rgb(170,70,155);fill-rule:nonzero;"/>
                </g>
                <g id="Layer_1-210" serif:id="Layer_1-2" transform="matrix(4.90247,0.834804,-0.83061,4.87784,4051.75,1557.41)">
                    <path d="M3.19,10.16L3.02,6.6L0,4.71L3.34,3.46L4.19,0L6.42,2.79L9.97,2.53L8.01,5.51L9.35,8.81L5.91,7.86L3.19,10.16Z" style="fill:rgb(170,70,155);fill-rule:nonzero;"/>
                </g>
                <g id="Layer_1-211" serif:id="Layer_1-2" transform="matrix(4.44477,-5.11215,5.14392,4.43223,1956.3,2201.57)">
                    <path d="M3.19,10.16L3.02,6.6L0,4.71L3.34,3.46L4.19,0L6.42,2.79L9.97,2.53L8.01,5.51L9.35,8.81L5.91,7.86L3.19,10.16Z" style="fill:rgb(170,70,155);fill-rule:nonzero;"/>
                </g>
                <g id="Layer_1-212" serif:id="Layer_1-2" transform="matrix(6.86881,-7.90016,7.94925,6.84942,2164.84,1855.78)">
                    <path d="M3.19,10.16L3.02,6.6L0,4.71L3.34,3.46L4.19,0L6.42,2.79L9.97,2.53L8.01,5.51L9.35,8.81L5.91,7.86L3.19,10.16Z" style="fill:rgb(170,70,155);fill-rule:nonzero;"/>
                </g>
                <g id="Layer_1-213" serif:id="Layer_1-2" transform="matrix(2.9566,-3.40053,3.42166,2.94825,1014.96,997.167)">
                    <path d="M3.19,10.16L3.02,6.6L0,4.71L3.34,3.46L4.19,0L6.42,2.79L9.97,2.53L8.01,5.51L9.35,8.81L5.91,7.86L3.19,10.16Z" style="fill:rgb(170,70,155);fill-rule:nonzero;"/>
                </g>
                <g id="Layer_1-214" serif:id="Layer_1-2" transform="matrix(-4.24532,6.75143,-6.05634,-4.61123,3273.18,1491.96)">
                    <path d="M3.19,10.16L3.02,6.6L0,4.71L3.34,3.46L4.19,0L6.42,2.79L9.97,2.53L8.01,5.51L9.35,8.81L5.91,7.86L3.19,10.16Z" style="fill:rgb(170,70,155);fill-rule:nonzero;"/>
                </g>
                <g id="Layer_1-215" serif:id="Layer_1-2" transform="matrix(-4.24532,6.75143,-6.05634,-4.61123,2549.46,1051.8)">
                    <path d="M3.19,10.16L3.02,6.6L0,4.71L3.34,3.46L4.19,0L6.42,2.79L9.97,2.53L8.01,5.51L9.35,8.81L5.91,7.86L3.19,10.16Z" style="fill:rgb(170,70,155);fill-rule:nonzero;"/>
                </g>
            </g>
        </g>
        <g transform="matrix(-1.73865,0.0763276,-0.128756,-1.03068,7913.84,3861.96)">
            <g opacity="0.6">
                <g id="Layer_1-216" serif:id="Layer_1-2" transform="matrix(4.44477,-5.11215,5.14392,4.43223,2530.26,2064.97)">
                    <path d="M3.19,10.16L3.02,6.6L0,4.71L3.34,3.46L4.19,0L6.42,2.79L9.97,2.53L8.01,5.51L9.35,8.81L5.91,7.86L3.19,10.16Z" style="fill:rgb(170,70,155);fill-rule:nonzero;"/>
                </g>
                <g id="Layer_1-217" serif:id="Layer_1-2" transform="matrix(6.86881,-7.90016,7.94925,6.84942,1997.83,1647.72)">
                    <path d="M3.19,10.16L3.02,6.6L0,4.71L3.34,3.46L4.19,0L6.42,2.79L9.97,2.53L8.01,5.51L9.35,8.81L5.91,7.86L3.19,10.16Z" style="fill:rgb(170,70,155);fill-rule:nonzero;"/>
                </g>
                <g id="Layer_1-218" serif:id="Layer_1-2" transform="matrix(-4.24532,6.75143,-6.05634,-4.61123,4056.73,2778.69)">
                    <path d="M3.19,10.16L3.02,6.6L0,4.71L3.34,3.46L4.19,0L6.42,2.79L9.97,2.53L8.01,5.51L9.35,8.81L5.91,7.86L3.19,10.16Z" style="fill:rgb(170,70,155);fill-rule:nonzero;"/>
                </g>
            </g>
        </g>
        <g transform="matrix(1.74341,0,0,1.0335,-3289.63,-97.4765)">
            <g opacity="0.74">
                <g id="Layer_1-219" serif:id="Layer_1-2" transform="matrix(-4.24532,6.75143,-6.05634,-4.61123,1051.23,2668.53)">
                    <path d="M3.19,10.16L3.02,6.6L0,4.71L3.34,3.46L4.19,0L6.42,2.79L9.97,2.53L8.01,5.51L9.35,8.81L5.91,7.86L3.19,10.16Z" style="fill:rgb(170,70,155);fill-rule:nonzero;"/>
                </g>
                <g id="Layer_1-220" serif:id="Layer_1-2" transform="matrix(-2.82392,4.49095,-4.02859,-3.06732,4277.21,671.002)">
                    <path d="M3.19,10.16L3.02,6.6L0,4.71L3.34,3.46L4.19,0L6.42,2.79L9.97,2.53L8.01,5.51L9.35,8.81L5.91,7.86L3.19,10.16Z" style="fill:rgb(170,70,155);fill-rule:nonzero;"/>
                </g>
                <g id="Layer_1-221" serif:id="Layer_1-2" transform="matrix(-2.82392,4.49095,-4.02859,-3.06732,3270.8,2348.91)">
                    <path d="M3.19,10.16L3.02,6.6L0,4.71L3.34,3.46L4.19,0L6.42,2.79L9.97,2.53L8.01,5.51L9.35,8.81L5.91,7.86L3.19,10.16Z" style="fill:rgb(170,70,155);fill-rule:nonzero;"/>
                </g>
                <g id="Layer_1-222" serif:id="Layer_1-2" transform="matrix(-3.92573,-0.987401,0.936268,-4.3301,2848.3,2236.85)">
                    <path d="M3.19,10.16L3.02,6.6L0,4.71L3.34,3.46L4.19,0L6.42,2.79L9.97,2.53L8.01,5.51L9.35,8.81L5.91,7.86L3.19,10.16Z" style="fill:rgb(170,70,155);fill-rule:nonzero;"/>
                </g>
                <g id="Layer_1-223" serif:id="Layer_1-2" transform="matrix(-3.92573,-0.987401,0.936268,-4.3301,3701.44,1621.01)">
                    <path d="M3.19,10.16L3.02,6.6L0,4.71L3.34,3.46L4.19,0L6.42,2.79L9.97,2.53L8.01,5.51L9.35,8.81L5.91,7.86L3.19,10.16Z" style="fill:rgb(170,70,155);fill-rule:nonzero;"/>
                </g>
                <g id="Layer_1-224" serif:id="Layer_1-2" transform="matrix(-4.90553,5.52221,-4.96968,-5.34378,2900.59,2623.35)">
                    <path d="M3.19,10.16L3.02,6.6L0,4.71L3.34,3.46L4.19,0L6.42,2.79L9.97,2.53L8.01,5.51L9.35,8.81L5.91,7.86L3.19,10.16Z" style="fill:rgb(170,70,155);fill-rule:nonzero;"/>
                </g>
            </g>
        </g>
        <g transform="matrix(1.74341,0,0,1.0335,-3289.63,-97.4765)">
            <g opacity="0.88">
                <g id="Layer_1-225" serif:id="Layer_1-2" transform="matrix(2.9566,-3.40053,3.42166,2.94825,1412.86,1414.96)">
                    <path d="M3.19,10.16L3.02,6.6L0,4.71L3.34,3.46L4.19,0L6.42,2.79L9.97,2.53L8.01,5.51L9.35,8.81L5.91,7.86L3.19,10.16Z" style="fill:rgb(170,70,155);fill-rule:nonzero;"/>
                </g>
                <g id="Layer_1-226" serif:id="Layer_1-2" transform="matrix(-6.17287,6.94887,-6.2536,-6.72435,3715.48,2419.41)">
                    <path d="M3.19,10.16L3.02,6.6L0,4.71L3.34,3.46L4.19,0L6.42,2.79L9.97,2.53L8.01,5.51L9.35,8.81L5.91,7.86L3.19,10.16Z" style="fill:rgb(170,70,155);fill-rule:nonzero;"/>
                </g>
                <g id="Layer_1-227" serif:id="Layer_1-2" transform="matrix(-6.17287,6.94887,-6.2536,-6.72435,4591.23,1207.49)">
                    <path d="M3.19,10.16L3.02,6.6L0,4.71L3.34,3.46L4.19,0L6.42,2.79L9.97,2.53L8.01,5.51L9.35,8.81L5.91,7.86L3.19,10.16Z" style="fill:rgb(170,70,155);fill-rule:nonzero;"/>
                </g>
                <g id="Layer_1-228" serif:id="Layer_1-2" transform="matrix(-6.17287,6.94887,-6.2536,-6.72435,2739.65,658.53)">
                    <path d="M3.19,10.16L3.02,6.6L0,4.71L3.34,3.46L4.19,0L6.42,2.79L9.97,2.53L8.01,5.51L9.35,8.81L5.91,7.86L3.19,10.16Z" style="fill:rgb(170,70,155);fill-rule:nonzero;"/>
                </g>
            </g>
        </g>
        <g transform="matrix(1.74341,0,0,1.0335,-3289.63,-97.4765)">
            <g id="Layer_1-229" serif:id="Layer_1-2" transform="matrix(-4.10611,4.62229,-4.1598,-4.47294,1779.01,1152.14)">
                <path d="M3.19,10.16L3.02,6.6L0,4.71L3.34,3.46L4.19,0L6.42,2.79L9.97,2.53L8.01,5.51L9.35,8.81L5.91,7.86L3.19,10.16Z" style="fill:rgb(170,70,155);fill-rule:nonzero;"/>
            </g>
            <g id="Layer_1-230" serif:id="Layer_1-2" transform="matrix(3.72044,-4.27906,4.30565,3.70994,4369.68,1900.92)">
                <path d="M3.19,10.16L3.02,6.6L0,4.71L3.34,3.46L4.19,0L6.42,2.79L9.97,2.53L8.01,5.51L9.35,8.81L5.91,7.86L3.19,10.16Z" style="fill:rgb(170,70,155);fill-rule:nonzero;"/>
            </g>
            <g id="Layer_1-231" serif:id="Layer_1-2" transform="matrix(4.44477,-5.11215,5.14392,4.43223,2676.93,1674.42)">
                <path d="M3.19,10.16L3.02,6.6L0,4.71L3.34,3.46L4.19,0L6.42,2.79L9.97,2.53L8.01,5.51L9.35,8.81L5.91,7.86L3.19,10.16Z" style="fill:rgb(170,70,155);fill-rule:nonzero;"/>
            </g>
            <g transform="matrix(-0.999535,-0.0305027,0.0305024,-0.999535,4324.35,3772.36)">
                <g opacity="0.6">
                    <g id="Layer_1-232" serif:id="Layer_1-2" transform="matrix(3.87385,0.659647,-0.656333,3.85439,2837.01,1040.44)">
                        <path d="M3.19,10.16L3.02,6.6L0,4.71L3.34,3.46L4.19,0L6.42,2.79L9.97,2.53L8.01,5.51L9.35,8.81L5.91,7.86L3.19,10.16Z" style="fill:rgb(170,70,155);fill-rule:nonzero;"/>
                    </g>
                    <g id="Layer_1-233" serif:id="Layer_1-2" transform="matrix(6.86881,-7.90016,7.94925,6.84942,1926.13,1082.08)">
                        <path d="M3.19,10.16L3.02,6.6L0,4.71L3.34,3.46L4.19,0L6.42,2.79L9.97,2.53L8.01,5.51L9.35,8.81L5.91,7.86L3.19,10.16Z" style="fill:rgb(170,70,155);fill-rule:nonzero;"/>
                    </g>
                    <g id="Layer_1-234" serif:id="Layer_1-2" transform="matrix(2.9566,-3.40053,3.42166,2.94825,1014.96,997.167)">
                        <path d="M3.19,10.16L3.02,6.6L0,4.71L3.34,3.46L4.19,0L6.42,2.79L9.97,2.53L8.01,5.51L9.35,8.81L5.91,7.86L3.19,10.16Z" style="fill:rgb(170,70,155);fill-rule:nonzero;"/>
                    </g>
                </g>
            </g>
            <g id="Layer_1-235" serif:id="Layer_1-2" transform="matrix(-4.59863,4.97419,-5.00633,-4.58707,1375.22,2267.51)">
                <path d="M3.19,10.16L3.02,6.6L0,4.71L3.34,3.46L4.19,0L6.42,2.79L9.97,2.53L8.01,5.51L9.35,8.81L5.91,7.86L3.19,10.16Z" style="fill:rgb(170,70,155);fill-rule:nonzero;"/>
            </g>
            <g id="Layer_1-236" serif:id="Layer_1-2" transform="matrix(4.87466,0.830067,-0.825897,4.85017,3972.52,786.689)">
                <path d="M3.19,10.16L3.02,6.6L0,4.71L3.34,3.46L4.19,0L6.42,2.79L9.97,2.53L8.01,5.51L9.35,8.81L5.91,7.86L3.19,10.16Z" style="fill:rgb(170,70,155);fill-rule:nonzero;"/>
            </g>
        </g>
        <g id="Layer_1-237" serif:id="Layer_1-2" transform="matrix(6.75371,0.681749,-1.14426,3.98353,3550.97,2539.82)">
            <path d="M3.19,10.16L3.02,6.6L0,4.71L3.34,3.46L4.19,0L6.42,2.79L9.97,2.53L8.01,5.51L9.35,8.81L5.91,7.86L3.19,10.16Z" style="fill:rgb(170,70,155);fill-rule:nonzero;"/>
        </g>
        <g id="Layer_1-238" serif:id="Layer_1-2" transform="matrix(13.957,1.40888,-2.36469,8.23223,2978.93,520.07)">
            <path d="M3.19,10.16L3.02,6.6L0,4.71L3.34,3.46L4.19,0L6.42,2.79L9.97,2.53L8.01,5.51L9.35,8.81L5.91,7.86L3.19,10.16Z" style="fill:rgb(170,70,155);fill-rule:nonzero;"/>
        </g>
    </g>
</svg>
