<?xml version="1.0" encoding="UTF-8" standalone="no"?>
<!DOCTYPE svg PUBLIC "-//W3C//DTD SVG 1.1//EN" "http://www.w3.org/Graphics/SVG/1.1/DTD/svg11.dtd">
<svg width="100%" height="100%" viewBox="0 0 266 153" version="1.1" xmlns="http://www.w3.org/2000/svg" xmlns:xlink="http://www.w3.org/1999/xlink" xml:space="preserve" xmlns:serif="http://www.serif.com/" style="fill-rule:evenodd;clip-rule:evenodd;stroke-linejoin:round;stroke-miterlimit:2;">
    <g transform="matrix(-0.999996,0.00292588,-0.00292588,-0.999996,416.478,548.738)">
        <g id="Layer1">
            <path d="M274.967,434.732C270.264,430.831 267.34,425.373 267.34,419.337C267.34,407.493 278.599,397.876 292.466,397.876C306.333,397.876 317.591,407.493 317.591,419.337C317.591,420.051 317.55,420.756 317.47,421.452C329.02,423.619 337.692,432.642 337.692,443.43C337.692,449.575 334.878,455.147 330.321,459.206C332.046,461.599 333.293,464.256 333.954,467.087C335.536,466.841 337.167,466.712 338.834,466.712C351.576,466.712 362.247,474.228 364.916,484.27C367.273,483.145 369.984,482.504 372.867,482.504C381.944,482.504 389.313,488.854 389.313,496.676C389.313,497.236 389.275,497.788 389.202,498.33C403.261,498.98 414.439,508.785 414.439,520.769C414.439,533.172 402.464,543.242 387.714,543.242C378.623,543.242 370.587,539.416 365.758,533.577C364.134,533.808 362.464,533.928 360.761,533.928C352.777,533.928 345.53,531.282 340.221,526.988C335.883,530.526 329.902,532.714 323.302,532.714C319.44,532.714 315.791,531.965 312.558,530.635C308.357,534.41 302.442,536.763 295.892,536.763C289.32,536.763 283.386,534.394 279.182,530.596C276.443,538.147 268.081,543.646 258.204,543.646C250.084,543.646 242.99,539.931 239.2,534.415C235.801,535.914 231.93,536.763 227.825,536.763C222.93,536.763 218.369,535.556 214.545,533.48C210.206,542.518 199.577,548.91 187.167,548.91C170.905,548.91 157.702,537.933 157.702,524.413C157.702,519.072 159.762,514.128 163.257,510.101C155.9,508.671 150.392,502.927 150.392,496.069C150.392,488.135 157.761,481.694 166.838,481.694C173.3,481.694 178.897,484.959 181.585,489.703C184.851,487.481 189.021,486.148 193.562,486.148C195.065,486.148 196.526,486.294 197.928,486.57C197.911,486.229 197.902,485.886 197.902,485.541C197.902,472.635 209.971,462.126 224.954,461.859C224.297,460.136 223.942,458.297 223.942,456.387C223.942,446.666 233.153,438.773 244.499,438.773C247.839,438.773 250.994,439.457 253.784,440.671C260.039,437.019 267.263,434.875 274.967,434.732Z" style="fill:url(#_Linear1);"/>
        </g>
    </g>
    <g transform="matrix(-0.999996,0.00292588,-0.00292588,-0.999996,416.478,548.738)">
        <path d="M274.967,434.732C270.264,430.831 267.34,425.373 267.34,419.337C267.34,407.493 278.599,397.876 292.466,397.876C306.333,397.876 317.591,407.493 317.591,419.337C317.591,420.051 317.55,420.756 317.47,421.452C329.02,423.619 337.692,432.642 337.692,443.43C337.692,449.575 334.878,455.147 330.321,459.206C332.046,461.599 333.293,464.256 333.954,467.087C335.536,466.841 337.167,466.712 338.834,466.712C351.576,466.712 362.247,474.228 364.916,484.27C367.273,483.145 369.984,482.504 372.867,482.504C381.944,482.504 389.313,488.854 389.313,496.676C389.313,497.236 389.275,497.788 389.202,498.33C403.261,498.98 414.439,508.785 414.439,520.769C414.439,533.172 402.464,543.242 387.714,543.242C378.623,543.242 370.587,539.416 365.758,533.577C364.134,533.808 362.464,533.928 360.761,533.928C352.777,533.928 345.53,531.282 340.221,526.988C335.883,530.526 329.902,532.714 323.302,532.714C319.44,532.714 315.791,531.965 312.558,530.635C308.357,534.41 302.442,536.763 295.892,536.763C289.32,536.763 283.386,534.394 279.182,530.596C276.443,538.147 268.081,543.646 258.204,543.646C250.084,543.646 242.99,539.931 239.2,534.415C235.801,535.914 231.93,536.763 227.825,536.763C222.93,536.763 218.369,535.556 214.545,533.48C210.206,542.518 199.577,548.91 187.167,548.91C170.905,548.91 157.702,537.933 157.702,524.413C157.702,519.072 159.762,514.128 163.257,510.101C155.9,508.671 150.392,502.927 150.392,496.069C150.392,488.135 157.761,481.694 166.838,481.694C173.3,481.694 178.897,484.959 181.585,489.703C184.851,487.481 189.021,486.148 193.562,486.148C195.065,486.148 196.526,486.294 197.928,486.57C197.911,486.229 197.902,485.886 197.902,485.541C197.902,472.635 209.971,462.126 224.954,461.859C224.297,460.136 223.942,458.297 223.942,456.387C223.942,446.666 233.153,438.773 244.499,438.773C247.839,438.773 250.994,439.457 253.784,440.671C260.039,437.019 267.263,434.875 274.967,434.732Z" style="fill:rgb(243,239,231);"/>
    </g>
    <defs>
        <linearGradient id="_Linear1" x1="0" y1="0" x2="1" y2="0" gradientUnits="userSpaceOnUse" gradientTransform="matrix(-0.949452,168.134,-168.134,-0.949452,295.362,463.709)"><stop offset="0" style="stop-color:black;stop-opacity:0"/><stop offset="1" style="stop-color:black;stop-opacity:1"/></linearGradient>
    </defs>
</svg>
