<?xml version="1.0" encoding="UTF-8" standalone="no"?>
<!DOCTYPE svg PUBLIC "-//W3C//DTD SVG 1.1//EN" "http://www.w3.org/Graphics/SVG/1.1/DTD/svg11.dtd">
<svg width="100%" height="100%" viewBox="0 0 304 378" version="1.1" xmlns="http://www.w3.org/2000/svg" xmlns:xlink="http://www.w3.org/1999/xlink" xml:space="preserve" xmlns:serif="http://www.serif.com/" style="fill-rule:evenodd;clip-rule:evenodd;stroke-linecap:round;stroke-linejoin:round;stroke-miterlimit:1.5;">
    <g id="Layer1">
    </g>
    <g id="Artboard1" transform="matrix(0.863292,0,0,0.946446,-87.0744,-155.864)">
        <rect x="100.863" y="164.683" width="352" height="399.333" style="fill:none;"/>
        <clipPath id="_clip1">
            <rect x="100.863" y="164.683" width="352" height="399.333"/>
        </clipPath>
        <g clip-path="url(#_clip1)">
            <g transform="matrix(0.475197,1.52149e-17,0,0.433446,227.778,269.997)">
                <g opacity="0.53">
                    <path d="M148.196,353.855C148.196,350.507 145.478,347.788 142.13,347.788L52.263,347.788C48.915,347.788 46.196,350.507 46.196,353.855L46.196,402.388C46.196,405.736 48.915,408.455 52.263,408.455L142.13,408.455C145.478,408.455 148.196,405.736 148.196,402.388L148.196,353.855Z" style="fill:rgb(235,235,235);"/>
                    <path d="M148.196,353.855C148.196,350.507 145.478,347.788 142.13,347.788L52.263,347.788C48.915,347.788 46.196,350.507 46.196,353.855L46.196,402.388C46.196,405.736 48.915,408.455 52.263,408.455L142.13,408.455C145.478,408.455 148.196,405.736 148.196,402.388L148.196,353.855Z" style="fill:rgb(235,235,235);"/>
                    <clipPath id="_clip2">
                        <path d="M148.196,353.855C148.196,350.507 145.478,347.788 142.13,347.788L52.263,347.788C48.915,347.788 46.196,350.507 46.196,353.855L46.196,402.388C46.196,405.736 48.915,408.455 52.263,408.455L142.13,408.455C145.478,408.455 148.196,405.736 148.196,402.388L148.196,353.855Z"/>
                    </clipPath>
                    <g clip-path="url(#_clip2)">
                        <path d="M46.863,347.122L98.196,381.122L147.53,348.455" style="fill:none;stroke:rgb(97,97,97);stroke-opacity:0.52;stroke-width:2.85px;"/>
                    </g>
                </g>
            </g>
            <g transform="matrix(0.914933,-0.0294254,0.0420757,1.08848,-4.37765,-35.8845)">
                <g transform="matrix(1,0,0,1,2.89223,-33.7869)">
                    <path d="M254.649,283.18L160.196,575.122L413.541,585.122L322.714,275.512L254.649,283.18Z" style="fill:url(#_Linear3);"/>
                </g>
                <path d="M264.117,296.076L205.53,581.788L366.863,584.455L311.558,293.407L264.117,296.076Z" style="fill:url(#_Linear4);"/>
            </g>
            <g transform="matrix(1.16692,0,0,1.31292,-38.7428,-128.983)">
                <ellipse cx="269.696" cy="301.122" rx="67.667" ry="28.167" style="fill:rgb(124,43,80);"/>
            </g>
            <g transform="matrix(1.16396,0,0,2.05321,-55.0719,-289.018)">
                <path d="M287.916,244.531C365.722,245.341 439.739,258.445 429.508,267.448C417.75,277.794 366.404,284.699 288.257,284.699C210.111,284.699 140.128,268.921 145.642,260.649C151.681,251.592 209.788,243.719 287.916,244.531Z" style="fill:rgb(175,37,82);"/>
            </g>
            <g transform="matrix(1.13216,0,0,1.91305,-46.9747,-254.398)">
                <path d="M287.916,244.531C365.722,245.341 439.739,258.445 429.508,267.448C417.75,277.794 366.404,284.699 288.257,284.699C210.111,284.699 140.128,268.921 145.642,260.649C151.681,251.592 209.788,243.719 287.916,244.531Z" style="fill:rgb(218,55,108);"/>
            </g>
            <g transform="matrix(0.668676,0,0,1.51001,80.9757,-181.785)">
                <path d="M289.873,237.8C391.124,238.464 437.58,280.117 437.58,280.117C416.586,292.801 223.605,304.33 141.845,279.364C141.3,269.545 204.446,237.24 289.873,237.8Z" style="fill:rgb(119,226,9);fill-opacity:0.94;"/>
            </g>
            <g transform="matrix(0.925625,0.103028,-0.112244,0.839007,52.7763,7.6717)">
                <path d="M238.414,184.496C249.498,179.859 262.25,177.056 276.507,177.326C333.475,178.403 356.177,226.823 361.499,240.63C345.483,207.008 305.099,183.122 257.863,183.122C251.229,183.122 244.73,183.593 238.414,184.496Z" style="fill:rgb(198,255,139);fill-opacity:0.82;"/>
            </g>
            <g transform="matrix(1.01482,0,0,0.925656,76.5965,61.2522)">
                <g transform="matrix(0.863133,0.504976,-0.49029,0.838032,52.4323,-99.8407)">
                    <ellipse cx="167.363" cy="258.622" rx="10.667" ry="7.667" style="fill:rgb(222,204,224);"/>
                </g>
                <g transform="matrix(0.972876,0.231326,-0.224599,0.944583,-0.314654,-64.5983)">
                    <ellipse cx="167.363" cy="258.622" rx="10.667" ry="7.667" style="fill:rgb(222,204,224);"/>
                </g>
                <g transform="matrix(0.988023,0.154307,-0.14982,0.959289,22.4774,-44.1782)">
                    <ellipse cx="167.363" cy="258.622" rx="10.667" ry="7.667" style="fill:rgb(222,204,224);"/>
                </g>
                <g transform="matrix(-0.892009,0.452017,0.438872,0.866068,360.289,-90.4685)">
                    <ellipse cx="167.363" cy="258.622" rx="10.667" ry="7.667" style="fill:rgb(222,204,224);"/>
                </g>
                <g transform="matrix(-0.985053,0.172249,0.16724,0.956406,410.816,-52.11)">
                    <ellipse cx="167.363" cy="258.622" rx="10.667" ry="7.667" style="fill:rgb(222,204,224);"/>
                </g>
                <g transform="matrix(-0.995529,0.0944568,0.0917098,0.966577,386.834,-33.1011)">
                    <ellipse cx="167.363" cy="258.622" rx="10.667" ry="7.667" style="fill:rgb(222,204,224);"/>
                </g>
                <g transform="matrix(-0.99945,-0.0331636,-0.0321991,0.970384,369.536,-11.3934)">
                    <ellipse cx="167.363" cy="258.622" rx="10.667" ry="7.667" style="fill:rgb(222,204,224);"/>
                </g>
            </g>
        </g>
    </g>
    <defs>
        <linearGradient id="_Linear3" x1="0" y1="0" x2="1" y2="0" gradientUnits="userSpaceOnUse" gradientTransform="matrix(-9.74366,234.562,-487.639,-11.9076,297.646,308.321)"><stop offset="0" style="stop-color:rgb(183,14,170);stop-opacity:0.58"/><stop offset="0.54" style="stop-color:rgb(214,127,213);stop-opacity:0.16"/><stop offset="1" style="stop-color:rgb(226,172,230);stop-opacity:0"/></linearGradient>
        <linearGradient id="_Linear4" x1="0" y1="0" x2="1" y2="0" gradientUnits="userSpaceOnUse" gradientTransform="matrix(-11.4349,236.312,-308.216,-8.7672,292.991,312.505)"><stop offset="0" style="stop-color:rgb(211,48,216);stop-opacity:0.45"/><stop offset="0.44" style="stop-color:rgb(223,147,227);stop-opacity:0.09"/><stop offset="1" style="stop-color:rgb(226,172,230);stop-opacity:0"/></linearGradient>
    </defs>
</svg>
